{
.appVersion = "3436";
.formatVersion = 3;
DisplayStrings = (
"/_corner.serifLeft/_corner.serifCapLeft noah
adhesionl
indonesia delusional
minimum
hambur/r.ss01 gecf/f.ss01/f.ss02 ontsiv
abcdefghı̇iȷjklmnopqrstuvwxy/y.001 z
sometimes need a breathe b/r.ss01 ea/t.ss01 he
OHno Ondel
Hamburgefontsiv
/A.ss01 DHE/E.ss01 SION
/A.ss01 ADH/H.ss01 E/E.ss01 SION
HAMBUR/R.ss01 GEF/F.ss01 ONTSIV
EONASX
HIEFEL
ABCDEFGHIJKLMNOP
QRSTUVWXYZ
no0123456789
Ohno.,:;…!¡?¿i·•*#16yes//no/backslash n-–—_(no){n0}[noah]‚„“n”‘n’
«»‹n›\"no'on
WhatWHAT!!!! How?
yourname_ sens*r
@&¶§©®™8°|¦†‡
¢$Hi€238£¥ price $56
+−×÷=≠><≥≤±≈~¬^%‰



",
"nnononoo
nnanoaoo
nnbnoboo
nncnocoo
nndnodoo
nnenoeoo
nnfnofoo
nngnogoo
nnhnohoo
nninoioo
nnjnojoo
nnknokoo
nnlnoloo
nnmnomoo
nnpnopoo
nnqnoqoo
nnrnoroo
nn/r.ss01 no/r.ss01 oo
nnsnosoo
nntnotoo
nnunouoo
nnvnovoo
nnwnowoo
nnxnoxoo
nnynoyoo
nnznozoo

HHOHOHOO
HHAHOAOO
HHBHOBOO
HHCHOCOO
HHDHODOO
HHEHOEOO
HHFHOFOO
HHGHOGOO
HHIHOIOO
HHJHOJOO
HHKHOKOO
HHLHOLOO
HHMHOMOO
HHNHONOO
HHPHOPOO
HHQHOQOO
HHRHOROO
HHSHOSOO
HHTHOTOO
HHUHOUOO
HHVHOVOO
HHWHOWOO
HHXHOXOO
HHYHOYOO
HHZHOZOO











HHOOO
Hnnnooo
Hnnnooo
Hnnnooo
Hnnnooo
Hnnnooo
Hnnnooo
Hnnnooo
Hnnnooo
Hnnnooo
Hnnnooo
Hnnnooo
H
Hnnnooo
Hnnnooo
Hnnnooo
Hnnnooo
Hnnnooo
Hnnnooo
Hnnnooo
Hnnnooo
Hnnnooo
Hnnnooo
Hnnnooo
Hnnnooo
Hnnnooo
Hnnnooo
Hnnnooo
Hnnnooo
Hnnnooo
Hnnnooo
Hnnnooo
Hnnnooo

llnnoovv
nnoonnoo
HHHH
VHOVHV",
"Awkward /A.ss01 lcatras Bleach Cross Dingo Ex /E.ss01 merald Facile /F.ss01 rancisca G/r.ss01 atuitous Gradua/t.ss01 ion Hive Interactive Jail Killjoy Laconic Modify Native Overlooked Phone Ph/y.001 ton Qualified Radio /R.ss01 hyme Scienti/f.ss01 ic Tart Usurp Vicarious Wrap Xylitol Yaleclinic Zilch

",
"ABCDEFGHIĲJKLMNOPQRSTUVWXYZ/A.ss01/E.ss01/F.ss01/H.ss01/R.ss01 abcdefghijklmnpqrstuvwxyz/r.ss01/t.ss01/f.ss02/y.001 0123456789
.,:;…!¡?¿·•*#16///backslash -–—_(){}[]‚„“”‘’«»‹›\"'@&¶§©®™°|¦†‡¢$€£¥+−×÷=≠><≥≤±≈~¬^%‰

",

glyphs = (
{
glyphname = A;
kernLeft = A;
kernRight = A.ss01;
lastChange = "2026-04-21 09:16:49 +0000";
layers = (
{
background = {
hints = (
{
name = _corner.serifCapLeft;
origin = (0,2);
scale = (1.3,1);
type = Corner;
},
{
name = _corner.serifCapLeft;
options = 1;
origin = (0,3);
scale = (0.6,-1);
type = Corner;
}
);
shapes = (
{
closed = 1;
nodes = (
(349,700,l),
(321,700,l),
(591,0,l),
(619,0,l)
);
},
{
closed = 1;
nodes = (
(407,502,l),
(425,202,o),
(347,-6,o),
(192,-6,cs),
(119,-6,o),
(92,43,o),
(92,124,cs),
(92,333,o),
(298,502,o),
(376,566,c),
(373,575,l),
(287,511,o),
(57,334,o),
(57,132,cs),
(57,37,o),
(107,-16,o),
(190,-16,cs),
(359,-16,o),
(438,194,o),
(416,501,c)
);
}
);
};
hints = (
{
name = _corner.serifCapLeft;
origin = (0,2);
scale = (1.3,1);
type = Corner;
},
{
name = _corner.serifCapLeft;
options = 1;
origin = (0,3);
scale = (0.6,-1);
type = Corner;
}
);
layerId = m01;
shapes = (
{
closed = 1;
nodes = (
(349,700,l),
(321,700,l),
(591,0,l),
(619,0,l)
);
},
{
closed = 1;
nodes = (
(407,502,l),
(425,202,o),
(347,-6,o),
(192,-6,cs),
(119,-6,o),
(92,43,o),
(92,124,cs),
(92,333,o),
(298,502,o),
(376,566,c),
(373,575,l),
(287,511,o),
(57,334,o),
(57,132,cs),
(57,37,o),
(107,-16,o),
(190,-16,cs),
(359,-16,o),
(438,194,o),
(416,501,c)
);
}
);
width = 680;
}
);
unicode = 65;
},
{
glyphname = B;
kernLeft = H;
kernRight = B;
lastChange = "2026-04-22 03:18:15 +0000";
layers = (
{
hints = (
{
name = _corner.serifCapLeft;
options = 1;
origin = (0,18);
scale = (1,-1);
type = Corner;
},
{
name = _corner.serifCapLeft;
origin = (0,19);
type = Corner;
}
);
layerId = m01;
shapes = (
{
closed = 1;
nodes = (
(153,0,l),
(162,0,l),
(392,0,ls),
(511,0,o),
(586,71,o),
(586,184,cs),
(586,286,o),
(525,353,o),
(423,364,c),
(423,356,l),
(507,378,o),
(551,438,o),
(551,526,cs),
(551,639,o),
(476,700,o),
(357,700,cs),
(162,700,l),
(153,700,l),
(134,700,l),
(134,0,l)
);
},
{
closed = 1;
nodes = (
(162,351,l),
(392,351,ls),
(490,351,o),
(551,288,o),
(551,184,cs),
(551,81,o),
(490,16,o),
(392,16,cs),
(162,16,l)
);
},
{
closed = 1;
nodes = (
(162,684,l),
(357,684,ls),
(455,684,o),
(516,629,o),
(516,526,cs),
(516,422,o),
(455,367,o),
(387,367,cs),
(162,367,l)
);
}
);
width = 640;
},
{
associatedMasterId = m01;
hints = (
{
name = _corner.serifCapLeft;
options = 1;
origin = (0,2);
scale = (1,-1);
type = Corner;
},
{
name = _corner.serifCapLeft;
origin = (0,3);
type = Corner;
}
);
layerId = "4611F51C-D3C1-49FC-8D82-3DE6188F7145";
name = "21 Apr 26 at 15.59";
shapes = (
{
closed = 1;
nodes = (
(162,0,l),
(162,700,l),
(134,700,l),
(134,0,l)
);
},
{
closed = 1;
nodes = (
(153,351,l),
(372,351,ls),
(470,351,o),
(531,288,o),
(531,184,cs),
(531,81,o),
(470,16,o),
(372,16,cs),
(153,16,l),
(153,0,l),
(372,0,ls),
(491,0,o),
(566,71,o),
(566,184,cs),
(566,296,o),
(491,367,o),
(372,367,cs),
(153,367,l)
);
},
{
closed = 1;
nodes = (
(332,351,ls),
(451,351,o),
(526,414,o),
(526,526,cs),
(526,639,o),
(451,700,o),
(332,700,cs),
(153,700,l),
(153,684,l),
(332,684,ls),
(430,684,o),
(491,629,o),
(491,526,cs),
(491,422,o),
(430,367,o),
(332,367,cs),
(153,367,l),
(153,351,l)
);
}
);
width = 600;
}
);
unicode = 66;
},
{
glyphname = C;
kernLeft = O;
kernRight = C;
lastChange = "2026-04-22 03:18:22 +0000";
layers = (
{
layerId = m01;
shapes = (
{
closed = 1;
nodes = (
(639,141,l),
(587,53,o),
(498,1,o),
(391,1,cs),
(216,1,o),
(90,134,o),
(90,351,cs),
(90,567,o),
(216,699,o),
(391,699,cs),
(473,699,o),
(594,670,o),
(589,575,cs),
(584,480,l),
(598,480,l),
(615,657,l),
(568,683,o),
(488,716,o),
(391,716,cs),
(194,716,o),
(55,565,o),
(55,351,cs),
(55,136,o),
(194,-16,o),
(391,-16,cs),
(502,-16,o),
(591,39,o),
(649,131,c)
);
}
);
width = 689;
}
);
metricLeft = "=O";
metricRight = "=O-15";
unicode = 67;
},
{
glyphname = D;
kernLeft = H;
kernRight = D;
lastChange = "2026-04-22 03:18:27 +0000";
layers = (
{
hints = (
{
name = _corner.serifCapLeft;
options = 1;
origin = (0,2);
scale = (1,-1);
type = Corner;
},
{
name = _corner.serifCapLeft;
origin = (0,3);
type = Corner;
}
);
layerId = m01;
shapes = (
{
closed = 1;
nodes = (
(152,0,l),
(152,700,l),
(124,700,l),
(124,0,l)
);
},
{
closed = 1;
nodes = (
(520,0,o),
(640,126,o),
(640,351,cs),
(640,575,o),
(520,700,o),
(306,700,cs),
(143,700,l),
(143,684,l),
(306,684,ls),
(497,684,o),
(605,566,o),
(605,351,cs),
(605,135,o),
(497,16,o),
(306,16,cs),
(143,16,l),
(143,0,l),
(306,0,ls)
);
}
);
width = 695;
},
{
associatedMasterId = m01;
layerId = "41421FBC-4118-4329-8330-F38A6B089924";
name = "21 Apr 26 at 16.53";
shapes = (
{
closed = 1;
nodes = (
(587,-16,o),
(725,136,o),
(725,351,cs),
(725,524,o),
(631,647,o),
(497,700,cs),
(364,753,o),
(298,794,o),
(159,906,c),
(117,880,l),
(280,776,o),
(345,743,o),
(470,694,c),
(464,699,l),
(227,746,o),
(55,591,o),
(55,351,cs),
(55,136,o),
(194,-16,o),
(391,-16,cs)
);
},
{
closed = 1;
nodes = (
(216,1,o),
(90,134,o),
(90,351,cs),
(90,567,o),
(216,699,o),
(391,699,cs),
(564,699,o),
(690,567,o),
(690,351,cs),
(690,134,o),
(564,1,o),
(391,1,cs)
);
}
);
width = 695;
}
);
metricLeft = "=H";
metricRight = "=O";
unicode = 68;
},
{
glyphname = E;
kernLeft = O;
kernRight = E;
lastChange = "2026-04-22 03:18:33 +0000";
layers = (
{
hints = (
{
name = _corner.serifCapLeft;
origin = (1,0);
scale = (1.3,1);
type = Corner;
},
{
name = _corner.serifCapLeft;
options = 2;
origin = (1,1);
scale = (-1.3,1);
type = Corner;
}
);
layerId = m01;
shapes = (
{
closed = 1;
nodes = (
(639,141,l),
(587,53,o),
(498,1,o),
(391,1,cs),
(216,1,o),
(90,134,o),
(90,351,cs),
(90,567,o),
(216,699,o),
(391,699,cs),
(473,699,o),
(594,670,o),
(589,575,cs),
(584,480,l),
(598,480,l),
(615,657,l),
(568,683,o),
(488,716,o),
(391,716,cs),
(194,716,o),
(55,565,o),
(55,351,cs),
(55,136,o),
(194,-16,o),
(391,-16,cs),
(502,-16,o),
(591,39,o),
(649,131,c)
);
},
{
closed = 1;
nodes = (
(422,343,l),
(422,357,l),
(73,357,l),
(73,343,l)
);
}
);
width = 689;
}
);
metricLeft = "=O";
metricRight = "=C";
unicode = 69;
},
{
glyphname = F;
kernLeft = H;
kernRight = F;
lastChange = "2026-04-22 03:18:40 +0000";
layers = (
{
hints = (
{
name = _corner.serifCapLeft;
options = 1;
origin = (0,2);
scale = (1,-1);
type = Corner;
},
{
name = _corner.serifCapLeft;
origin = (1,0);
type = Corner;
},
{
name = _corner.serifCapLeft;
options = 2;
origin = (1,1);
scale = (-1,1);
type = Corner;
},
{
name = _corner.serifCapLeft;
origin = (2,0);
scale = (1.5,1.1);
type = Corner;
},
{
name = _corner.serifCapLeft;
options = 1;
origin = (0,0);
scale = (1,-1);
type = Corner;
},
{
name = _corner.serifCapLeft;
origin = (0,3);
type = Corner;
}
);
layerId = m01;
shapes = (
{
closed = 1;
nodes = (
(152,0,l),
(152,700,l),
(124,700,l),
(124,0,l)
);
},
{
closed = 1;
nodes = (
(452,303,l),
(452,317,l),
(143,317,l),
(143,303,l)
);
},
{
closed = 1;
nodes = (
(512,684,l),
(510,700,l),
(143,700,l),
(143,684,l)
);
}
);
width = 560;
}
);
metricLeft = "=H";
unicode = 70;
},
{
glyphname = G;
kernLeft = O;
kernRight = G;
lastChange = "2026-04-22 03:18:47 +0000";
layers = (
{
hints = (
{
name = _corner.serifCapLeft;
options = 1;
origin = (0,3);
scale = (2,-1);
type = Corner;
}
);
layerId = m01;
shapes = (
{
closed = 1;
nodes = (
(709,-111,l),
(724,-111,l),
(584,365,l),
(554,365,l)
);
},
{
closed = 1;
nodes = (
(639,141,l),
(587,53,o),
(498,1,o),
(391,1,cs),
(216,1,o),
(90,134,o),
(90,351,cs),
(90,567,o),
(216,699,o),
(391,699,cs),
(473,699,o),
(594,670,o),
(589,575,cs),
(584,480,l),
(598,480,l),
(615,657,l),
(568,683,o),
(488,716,o),
(391,716,cs),
(194,716,o),
(55,565,o),
(55,351,cs),
(55,136,o),
(194,-16,o),
(391,-16,cs),
(502,-16,o),
(591,39,o),
(649,131,c)
);
}
);
width = 745;
},
{
associatedMasterId = m01;
layerId = "06EF56BF-35D8-4352-934E-BD423D2E6C72";
name = "21 Apr 26 at 14.51";
shapes = (
{
closed = 1;
nodes = (
(690,351,l),
(690,134,o),
(564,1,o),
(391,1,cs),
(216,1,o),
(90,134,o),
(90,351,cs),
(90,567,o),
(216,699,o),
(391,699,cs),
(473,699,o),
(594,670,o),
(589,575,cs),
(584,480,l),
(598,480,l),
(615,657,l),
(568,683,o),
(488,716,o),
(391,716,cs),
(194,716,o),
(55,565,o),
(55,351,cs),
(55,136,o),
(194,-16,o),
(391,-16,cs),
(587,-16,o),
(725,136,o),
(725,351,c)
);
},
{
closed = 1;
nodes = (
(692,-111,l),
(724,-111,l),
(514,365,l),
(482,365,l)
);
}
);
width = 745;
}
);
metricLeft = "=O";
unicode = 71;
},
{
glyphname = H;
kernLeft = H;
kernRight = H;
lastChange = "2026-04-21 09:28:46 +0000";
layers = (
{
hints = (
{
name = _corner.serifCapLeft;
options = 1;
origin = (1,2);
scale = (1,-1);
type = Corner;
},
{
name = _corner.serifCapLeft;
origin = (1,1);
type = Corner;
},
{
name = _corner.serifCapLeft;
options = 1;
origin = (0,0);
scale = (1,-1);
type = Corner;
},
{
name = _corner.serifCapLeft;
origin = (0,3);
type = Corner;
},
{
name = _corner.serifCapLeft;
options = 1;
origin = (1,0);
scale = (1,-1);
type = Corner;
},
{
name = _corner.serifCapLeft;
origin = (1,3);
type = Corner;
},
{
name = _corner.serifCapLeft;
origin = (0,1);
type = Corner;
},
{
name = _corner.serifCapLeft;
options = 2;
origin = (0,2);
scale = (-1,1);
type = Corner;
}
);
layerId = m01;
shapes = (
{
closed = 1;
nodes = (
(624,0,l),
(624,700,l),
(596,700,l),
(596,0,l)
);
},
{
closed = 1;
nodes = (
(152,0,l),
(152,700,l),
(124,700,l),
(124,0,l)
);
},
{
closed = 1;
nodes = (
(143,342,l),
(612,342,l),
(612,358,l),
(143,358,l)
);
}
);
width = 748;
}
);
metricRight = "=|";
unicode = 72;
},
{
glyphname = I;
kernLeft = H;
kernRight = H;
lastChange = "2026-04-22 09:21:30 +0000";
layers = (
{
anchors = (
{
name = bottom;
pos = (139,0);
},
{
name = ogonek;
pos = (249,10);
},
{
name = top;
pos = (139,700);
},
{
name = topleft;
pos = (20,700);
}
);
hints = (
{
name = _corner.serifCapLeft;
options = 1;
origin = (0,0);
scale = (1,-1);
type = Corner;
},
{
name = _corner.serifCapLeft;
origin = (0,1);
type = Corner;
},
{
name = _corner.serifCapLeft;
options = 2;
origin = (0,2);
scale = (-1,1);
type = Corner;
},
{
name = _corner.serifCapLeft;
origin = (0,3);
type = Corner;
}
);
layerId = m01;
shapes = (
{
closed = 1;
nodes = (
(153,0,l),
(153,700,l),
(125,700,l),
(125,0,l)
);
}
);
width = 277;
}
);
metricLeft = "=H";
metricRight = "=H";
unicode = 73;
},
{
glyphname = J;
kernLeft = J;
kernRight = J;
lastChange = "2026-04-22 03:18:57 +0000";
layers = (
{
hints = (
{
name = _corner.serifCapLeft;
origin = (0,0);
type = Corner;
},
{
name = _corner.serifCapLeft;
options = 2;
origin = (0,1);
scale = (-1,1);
type = Corner;
}
);
layerId = m01;
shapes = (
{
closed = 1;
nodes = (
(152,700,l),
(124,700,l),
(124,20,ls),
(124,-111,o),
(31,-150,o),
(-4,-163,c),
(2,-179,l),
(43,-164,o),
(152,-118,o),
(152,20,cs)
);
}
);
width = 276;
}
);
metricRight = "=H";
unicode = 74;
},
{
glyphname = K;
kernLeft = H;
kernRight = K;
lastChange = "2026-04-22 09:07:17 +0000";
layers = (
{
hints = (
{
name = _corner.serifCapLeft;
options = 1;
origin = (0,0);
scale = (1,-1);
type = Corner;
},
{
name = _corner.serifCapLeft;
origin = (0,1);
type = Corner;
},
{
name = _corner.serifCapLeft;
options = 2;
origin = (0,2);
scale = (-1,1);
type = Corner;
},
{
name = _corner.serifCapLeft;
origin = (0,3);
type = Corner;
},
{
name = _corner.serifCapLeft;
options = 1;
origin = (1,0);
scale = (0.8,-1);
type = Corner;
},
{
name = _corner.serifCapLeft;
origin = (1,3);
scale = (1.2,1);
type = Corner;
},
{
name = _corner.serifCapLeft;
origin = (2,2);
scale = (0.9,1);
type = Corner;
},
{
name = _corner.serifCapLeft;
options = 1;
origin = (2,3);
scale = (1.2,-1);
type = Corner;
}
);
layerId = m01;
shapes = (
{
closed = 1;
nodes = (
(153,0,l),
(153,700,l),
(125,700,l),
(125,0,l)
);
},
{
closed = 1;
nodes = (
(585,0,l),
(297,410,l),
(281,393,l),
(557,0,l)
);
},
{
closed = 1;
nodes = (
(128,241,l),
(151,241,l),
(555,700,l),
(532,700,l)
);
}
);
width = 643;
}
);
metricLeft = "=H";
unicode = 75;
},
{
glyphname = L;
kernLeft = H;
kernRight = L;
lastChange = "2026-04-22 03:19:09 +0000";
layers = (
{
hints = (
{
name = _corner.serifCapLeft;
options = 1;
origin = (0,2);
scale = (1,-1);
type = Corner;
},
{
name = _corner.serifCapLeft;
origin = (0,3);
type = Corner;
},
{
name = _corner.serifCapLeft;
options = 1;
origin = (1,1);
scale = (1.7,-1.1);
type = Corner;
},
{
name = _corner.serifCapLeft;
origin = (0,1);
type = Corner;
}
);
layerId = m01;
shapes = (
{
closed = 1;
nodes = (
(152,0,l),
(152,700,l),
(124,700,l),
(124,0,l)
);
},
{
closed = 1;
nodes = (
(520,0,l),
(522,16,l),
(143,16,l),
(143,0,l)
);
}
);
width = 572;
}
);
metricLeft = "=H";
unicode = 76;
},
{
glyphname = M;
kernLeft = M;
kernRight = M;
lastChange = "2026-04-22 03:19:12 +0000";
layers = (
{
hints = (
{
name = _corner.serifCapLeft;
origin = (0,2);
type = Corner;
},
{
name = _corner.serifCapLeft;
options = 1;
origin = (0,3);
scale = (1,-1);
type = Corner;
}
);
layerId = m01;
shapes = (
{
closed = 1;
nodes = (
(507,500,l),
(479,500,l),
(479,0,l),
(507,0,l)
);
},
{
closed = 1;
nodes = (
(263,26,l),
(32,12,l),
(32,0,l),
(297,0,l),
(297,12,l),
(182,82,o),
(99,236,o),
(99,426,cs),
(99,612,o),
(175,702,o),
(284,702,cs),
(408,702,o),
(479,598,o),
(479,438,c),
(488,438,l),
(492,606,o),
(416,716,o),
(284,716,cs),
(159,716,o),
(64,620,o),
(64,426,cs),
(64,228,o),
(171,72,o),
(291,3,c)
);
},
{
closed = 1;
nodes = (
(815,72,o),
(922,228,o),
(922,426,cs),
(922,620,o),
(827,716,o),
(702,716,cs),
(570,716,o),
(494,606,o),
(498,438,c),
(507,438,l),
(507,598,o),
(578,702,o),
(702,702,cs),
(811,702,o),
(887,612,o),
(887,426,cs),
(887,236,o),
(804,82,o),
(689,12,c),
(689,0,l),
(954,0,l),
(954,12,l),
(723,26,l),
(695,3,l)
);
}
);
width = 986;
}
);
metricRight = "=|";
unicode = 77;
},
{
glyphname = N;
kernLeft = H;
kernRight = N;
lastChange = "2026-04-22 03:19:16 +0000";
layers = (
{
hints = (
{
name = _corner.serifCapLeft;
origin = (0,1);
type = Corner;
},
{
name = _corner.serifCapLeft;
options = 1;
origin = (1,2);
scale = (1,-1);
type = Corner;
},
{
name = _corner.serifCapLeft;
origin = (1,3);
type = Corner;
},
{
name = _corner.serifCapLeft;
options = 1;
origin = (1,0);
scale = (1,-1);
type = Corner;
},
{
name = _corner.serifCapLeft;
options = 1;
origin = (0,2);
scale = (1,-1);
type = Corner;
}
);
layerId = m01;
shapes = (
{
closed = 1;
nodes = (
(624,0,l),
(624,700,l),
(606,700,l),
(606,0,l)
);
},
{
closed = 1;
nodes = (
(142,0,l),
(142,700,l),
(124,700,l),
(124,0,l)
);
},
{
closed = 1;
nodes = (
(586,0,l),
(624,0,l),
(162,700,l),
(124,700,l)
);
}
);
width = 748;
}
);
metricLeft = "=H";
metricRight = "=H";
unicode = 78;
},
{
glyphname = O;
kernLeft = O;
kernRight = O;
lastChange = "2026-04-22 03:17:39 +0000";
layers = (
{
layerId = m01;
shapes = (
{
closed = 1;
nodes = (
(587,-16,o),
(725,136,o),
(725,351,cs),
(725,565,o),
(587,716,o),
(391,716,cs),
(194,716,o),
(55,565,o),
(55,351,cs),
(55,136,o),
(194,-16,o),
(391,-16,cs)
);
},
{
closed = 1;
nodes = (
(216,1,o),
(90,134,o),
(90,351,cs),
(90,567,o),
(216,699,o),
(391,699,cs),
(564,699,o),
(690,567,o),
(690,351,cs),
(690,134,o),
(564,1,o),
(391,1,cs)
);
}
);
width = 780;
}
);
metricRight = "=|";
unicode = 79;
},
{
glyphname = P;
kernLeft = H;
kernRight = P;
lastChange = "2026-04-22 03:19:23 +0000";
layers = (
{
hints = (
{
name = _corner.serifCapLeft;
options = 1;
origin = (1,0);
scale = (1,-1);
type = Corner;
},
{
name = _corner.serifCapLeft;
options = 1;
origin = (1,2);
scale = (1,-1);
type = Corner;
},
{
name = _corner.serifCapLeft;
origin = (1,3);
type = Corner;
}
);
layerId = m01;
shapes = (
{
closed = 1;
nodes = (
(382,333,ls),
(501,333,o),
(576,404,o),
(576,516,cs),
(576,629,o),
(501,700,o),
(382,700,cs),
(143,700,l),
(143,684,l),
(382,684,ls),
(480,684,o),
(541,619,o),
(541,516,cs),
(541,412,o),
(480,349,o),
(382,349,cs),
(143,349,l),
(143,333,l)
);
},
{
closed = 1;
nodes = (
(152,0,l),
(152,700,l),
(124,700,l),
(124,0,l)
);
}
);
width = 630;
}
);
metricLeft = "=H";
unicode = 80;
},
{
glyphname = Q;
kernLeft = O;
kernRight = O;
lastChange = "2026-04-22 03:19:40 +0000";
layers = (
{
layerId = m01;
shapes = (
{
ref = O;
},
{
closed = 1;
nodes = (
(761,-216,l),
(776,-184,l),
(278,15,l),
(340,60,l),
(303,-5,l)
);
}
);
width = 780;
}
);
unicode = 81;
},
{
glyphname = R;
kernLeft = H;
kernRight = R;
lastChange = "2026-04-22 03:19:50 +0000";
layers = (
{
hints = (
{
name = _corner.serifCapLeft;
options = 1;
origin = (1,2);
scale = (1,-1);
type = Corner;
},
{
name = _corner.serifCapLeft;
origin = (1,3);
type = Corner;
},
{
name = _corner.serifCapLeft;
options = 1;
origin = (1,0);
scale = (1,-1);
type = Corner;
}
);
layerId = m01;
shapes = (
{
closed = 1;
nodes = (
(382,333,ls),
(501,333,o),
(576,404,o),
(576,516,cs),
(576,629,o),
(501,700,o),
(382,700,cs),
(143,700,l),
(143,684,l),
(382,684,ls),
(480,684,o),
(541,619,o),
(541,516,cs),
(541,412,o),
(480,349,o),
(382,349,cs),
(143,349,l),
(143,333,l)
);
},
{
closed = 1;
nodes = (
(152,0,l),
(152,700,l),
(124,700,l),
(124,0,l)
);
},
{
closed = 1;
nodes = (
(599,-111,l),
(614,-111,l),
(392,345,l),
(357,345,l)
);
}
);
width = 620;
}
);
metricLeft = "=H";
unicode = 82;
},
{
glyphname = S;
kernLeft = S;
kernRight = S;
lastChange = "2026-04-22 03:19:55 +0000";
layers = (
{
background = {
shapes = (
{
closed = 1;
nodes = (
(434,1,o),
(478,85,o),
(478,154,cs),
(478,389,o),
(56,307,o),
(56,544,cs),
(56,662,o),
(166,716,o),
(283,716,cs),
(345,716,o),
(426,700,o),
(480,657,c),
(463,480,l),
(449,480,l),
(459,663,l),
(468,620,l),
(442,663,o),
(387,699,o),
(283,699,cs),
(187,699,o),
(91,657,o),
(91,551,cs),
(91,325,o),
(512,407,o),
(512,165,cs),
(512,71,o),
(450,-16,o),
(283,-16,cs),
(188,-16,o),
(108,13,o),
(53,43,c),
(69,242,l),
(83,242,l),
(83,124,ls),
(83,49,o),
(164,1,o),
(283,1,cs)
);
}
);
};
layerId = m01;
shapes = (
{
closed = 1;
nodes = (
(450,-16,o),
(527,54,o),
(527,160,cs),
(527,396,o),
(112,339,o),
(112,553,cs),
(112,648,o),
(199,699,o),
(303,699,cs),
(383,699,o),
(474,670,o),
(470,595,cs),
(464,480,l),
(478,480,l),
(495,657,l),
(446,696,o),
(368,716,o),
(303,716,cs),
(179,716,o),
(81,655,o),
(81,546,cs),
(81,320,o),
(496,378,o),
(496,154,cs),
(496,69,o),
(431,1,o),
(303,1,cs),
(224,1,o),
(102,32,o),
(105,118,cs),
(109,250,l),
(95,250,l),
(78,53,l),
(151,-1,o),
(237,-16,o),
(303,-16,cs)
);
}
);
width = 600;
},
{
associatedMasterId = m01;
background = {
shapes = (
{
closed = 1;
nodes = (
(459,1,o),
(503,85,o),
(503,154,cs),
(503,389,o),
(81,307,o),
(81,544,cs),
(81,662,o),
(191,716,o),
(308,716,cs),
(370,716,o),
(451,700,o),
(505,657,c),
(488,480,l),
(474,480,l),
(484,663,l),
(493,620,l),
(467,663,o),
(412,699,o),
(308,699,cs),
(212,699,o),
(116,657,o),
(116,551,cs),
(116,325,o),
(537,407,o),
(537,165,cs),
(537,71,o),
(475,-16,o),
(308,-16,cs),
(213,-16,o),
(133,13,o),
(78,43,c),
(94,242,l),
(108,242,l),
(108,124,ls),
(108,49,o),
(189,1,o),
(308,1,cs)
);
}
);
};
layerId = "67B1EB14-15D9-4772-A172-C164BD025B02";
name = "21 Apr 26 at 16.06";
shapes = (
{
closed = 1;
nodes = (
(460,-16,o),
(537,54,o),
(537,160,cs),
(537,396,o),
(112,339,o),
(112,553,cs),
(112,648,o),
(199,699,o),
(308,699,cs),
(393,699,o),
(484,670,o),
(480,595,cs),
(474,480,l),
(488,480,l),
(505,657,l),
(456,696,o),
(378,716,o),
(308,716,cs),
(179,716,o),
(81,655,o),
(81,546,cs),
(81,320,o),
(506,378,o),
(506,154,cs),
(506,69,o),
(441,1,o),
(308,1,cs),
(224,1,o),
(102,32,o),
(105,118,cs),
(109,250,l),
(95,250,l),
(78,53,l),
(151,-1,o),
(237,-16,o),
(308,-16,cs)
);
}
);
width = 600;
},
{
associatedMasterId = m01;
background = {
shapes = (
{
closed = 1;
nodes = (
(439,1,o),
(483,85,o),
(483,154,cs),
(483,389,o),
(61,307,o),
(61,544,cs),
(61,662,o),
(171,716,o),
(288,716,cs),
(350,716,o),
(431,700,o),
(485,657,c),
(468,480,l),
(454,480,l),
(464,663,l),
(473,620,l),
(447,663,o),
(392,699,o),
(288,699,cs),
(192,699,o),
(96,657,o),
(96,551,cs),
(96,325,o),
(517,407,o),
(517,165,cs),
(517,71,o),
(455,-16,o),
(288,-16,cs),
(193,-16,o),
(113,13,o),
(58,43,c),
(74,242,l),
(88,242,l),
(88,124,ls),
(88,49,o),
(169,1,o),
(288,1,cs)
);
}
);
};
layerId = "AF46E25B-7061-4C95-9442-0B7EF2830081";
name = "21 Apr 26 at 16.09";
shapes = (
{
closed = 1;
nodes = (
(420,-16,o),
(497,54,o),
(497,160,cs),
(497,396,o),
(112,339,o),
(112,553,cs),
(112,648,o),
(199,699,o),
(288,699,cs),
(353,699,o),
(444,670,o),
(440,595,cs),
(434,480,l),
(448,480,l),
(465,657,l),
(416,696,o),
(338,716,o),
(288,716,cs),
(179,716,o),
(81,655,o),
(81,546,cs),
(81,320,o),
(466,378,o),
(466,154,cs),
(466,69,o),
(401,1,o),
(288,1,cs),
(224,1,o),
(102,32,o),
(105,118,cs),
(109,250,l),
(95,250,l),
(78,53,l),
(151,-1,o),
(237,-16,o),
(288,-16,cs)
);
}
);
width = 560;
}
);
unicode = 83;
},
{
glyphname = T;
kernLeft = T;
kernRight = T;
lastChange = "2026-04-22 03:20:00 +0000";
layers = (
{
layerId = m01;
shapes = (
{
closed = 1;
nodes = (
(460,-16,o),
(544,32,o),
(601,140,c),
(590,146,l),
(538,47,o),
(453,1,o),
(353,1,cs),
(199,1,o),
(110,103,o),
(110,260,cs),
(110,472,o),
(269,612,o),
(433,682,c),
(427,689,l),
(235,624,o),
(75,478,o),
(75,260,cs),
(75,98,o),
(180,-16,o),
(353,-16,cs)
);
},
{
closed = 1;
nodes = (
(21,681,l),
(572,681,l),
(572,700,l),
(21,700,l)
);
}
);
width = 611;
}
);
unicode = 84;
},
{
glyphname = U;
kernLeft = U;
kernRight = H;
lastChange = "2026-04-22 03:20:10 +0000";
layers = (
{
hints = (
{
name = _corner.serifCapLeft;
options = 1;
origin = (0,2);
scale = (1,-1);
type = Corner;
},
{
name = _corner.serifCapLeft;
options = 1;
origin = (0,0);
scale = (1,-1);
type = Corner;
},
{
name = _corner.serifCapLeft;
origin = (0,3);
type = Corner;
}
);
layerId = m01;
shapes = (
{
closed = 1;
nodes = (
(579,700,l),
(579,0,l),
(607,0,l),
(607,700,l)
);
},
{
closed = 1;
nodes = (
(171,628,o),
(64,472,o),
(64,284,cs),
(64,80,o),
(179,-16,o),
(329,-16,cs),
(486,-16,o),
(592,94,o),
(588,352,c),
(579,352,l),
(579,102,o),
(478,-2,o),
(329,-2,cs),
(195,-2,o),
(99,88,o),
(99,284,cs),
(99,464,o),
(182,618,o),
(297,688,c),
(297,700,l),
(32,700,l),
(32,688,l),
(263,674,l),
(291,697,l)
);
}
);
width = 731;
}
);
metricRight = "=H";
unicode = 85;
},
{
glyphname = V;
kernLeft = V;
kernRight = V;
lastChange = "2026-04-22 03:20:14 +0000";
layers = (
{
hints = (
{
name = _corner.serifCapLeft;
options = 1;
origin = (0,0);
scale = (1.3,-1);
type = Corner;
},
{
name = _corner.serifCapLeft;
origin = (0,3);
scale = (0.6,1);
type = Corner;
},
{
name = _corner.serifCapLeft;
origin = (1,2);
scale = (1.3,1);
type = Corner;
},
{
name = _corner.serifCapLeft;
options = 1;
origin = (1,3);
scale = (0.6,-1);
type = Corner;
}
);
layerId = m01;
shapes = (
{
closed = 1;
nodes = (
(608,700,l),
(338,0,l),
(359,0,l),
(629,700,l)
);
},
{
closed = 1;
nodes = (
(331,0,l),
(359,0,l),
(89,700,l),
(61,700,l)
);
}
);
width = 690;
}
);
unicode = 86;
},
{
glyphname = W;
kernLeft = W;
kernRight = W;
lastChange = "2026-04-22 03:20:18 +0000";
layers = (
{
hints = (
{
name = _corner.serifCapLeft;
origin = (1,2);
scale = (1.3,1);
type = Corner;
},
{
name = _corner.serifCapLeft;
options = 1;
origin = (1,3);
scale = (0.6,-1);
type = Corner;
},
{
name = _corner.serifCapLeft;
options = 1;
origin = (2,0);
scale = (1.3,-1);
type = Corner;
},
{
name = _corner.serifCapLeft;
origin = (2,3);
scale = (0.6,1);
type = Corner;
}
);
layerId = m01;
shapes = (
{
closed = 1;
nodes = (
(511,700,l),
(301,0,l),
(322,0,l),
(532,700,l)
);
},
{
closed = 1;
nodes = (
(294,0,l),
(322,0,l),
(92,700,l),
(64,700,l)
);
},
{
closed = 1;
nodes = (
(951,700,l),
(721,0,l),
(742,0,l),
(972,700,l)
);
},
{
closed = 1;
nodes = (
(509,682,l),
(714,0,l),
(742,0,l),
(532,700,l)
);
}
);
width = 1036;
}
);
metricLeft = "=V";
metricRight = "=V";
unicode = 87;
},
{
glyphname = X;
kernLeft = X;
kernRight = X;
lastChange = "2026-04-22 03:20:22 +0000";
layers = (
{
hints = (
{
name = _corner.serifCapLeft;
options = 1;
origin = (0,0);
scale = (1,-1);
type = Corner;
},
{
name = _corner.serifCapLeft;
origin = (0,1);
type = Corner;
},
{
name = _corner.serifCapLeft;
options = 1;
origin = (0,2);
scale = (-1,1);
type = Corner;
},
{
name = _corner.serifCapLeft;
origin = (0,3);
type = Corner;
},
{
name = _corner.serifCapLeft;
origin = (2,1);
type = Corner;
},
{
name = _corner.serifCapLeft;
options = 1;
origin = (1,2);
scale = (1,-1);
type = Corner;
},
{
name = _corner.serifCapLeft;
origin = (1,1);
scale = (-1,-1);
type = Corner;
},
{
name = _corner.serifCapLeft;
options = 1;
origin = (2,2);
scale = (1,-1);
type = Corner;
}
);
layerId = m01;
shapes = (
{
closed = 1;
nodes = (
(642,0,l),
(146,700,l),
(114,700,l),
(610,0,l)
);
},
{
closed = 1;
nodes = (
(370,356,l),
(612,700,l),
(590,700,l),
(358,371,l)
);
},
{
closed = 1;
nodes = (
(358,381,l),
(84,0,l),
(106,0,l),
(370,366,l)
);
}
);
width = 727;
}
);
metricLeft = "=V";
metricRight = "=V";
unicode = 88;
},
{
glyphname = Y;
kernLeft = Y;
kernRight = Y;
lastChange = "2026-04-22 03:20:26 +0000";
layers = (
{
hints = (
{
name = _corner.serifCapLeft;
options = 1;
origin = (0,0);
scale = (1.3,-1);
type = Corner;
},
{
name = _corner.serifCapLeft;
origin = (0,3);
scale = (0.7,1);
type = Corner;
},
{
name = _corner.serifCapLeft;
origin = (1,2);
scale = (1.3,1);
type = Corner;
},
{
name = _corner.serifCapLeft;
options = 1;
origin = (1,3);
scale = (0.7,-1);
type = Corner;
},
{
name = _corner.serifCapLeft;
origin = (2,0);
type = Corner;
},
{
name = _corner.serifCapLeft;
options = 2;
origin = (2,1);
scale = (-1,1);
type = Corner;
}
);
layerId = m01;
shapes = (
{
closed = 1;
nodes = (
(606,700,l),
(336,270,l),
(357,270,l),
(627,700,l)
);
},
{
closed = 1;
nodes = (
(329,270,l),
(357,270,l),
(87,700,l),
(59,700,l)
);
},
{
closed = 1;
nodes = (
(329,0,l),
(357,0,l),
(357,270,l),
(329,270,l)
);
}
);
width = 686;
}
);
metricLeft = "=V";
metricRight = "=V";
unicode = 89;
},
{
glyphname = Z;
kernLeft = Z;
kernRight = Z;
lastChange = "2026-04-22 03:20:38 +0000";
layers = (
{
hints = (
{
name = _corner.serifCapLeft;
options = 1;
origin = (1,1);
scale = (2,-1.3);
type = Corner;
},
{
name = _corner.serifCapLeft;
options = 1;
origin = (2,3);
scale = (1.7,-1.3);
type = Corner;
}
);
layerId = m01;
shapes = (
{
closed = 1;
nodes = (
(77,16,l),
(532,684,l),
(504,684,l),
(49,16,l)
);
},
{
closed = 1;
nodes = (
(530,0,l),
(532,16,l),
(48,16,l),
(48,0,l)
);
},
{
closed = 1;
nodes = (
(532,684,l),
(532,700,l),
(80,700,l),
(78,684,l)
);
}
);
width = 600;
}
);
unicode = 90;
},
{
glyphname = A.ss01;
kernLeft = A;
kernRight = A;
lastChange = "2026-04-21 09:16:33 +0000";
layers = (
{
hints = (
{
name = _corner.serifCapLeft;
options = 1;
origin = (0,0);
scale = (1.3,-1);
type = Corner;
},
{
name = _corner.serifCapLeft;
options = 1;
origin = (0,2);
scale = (1.2,-1);
type = Corner;
},
{
name = _corner.serifCapLeft;
origin = (0,3);
scale = (0.6,1);
type = Corner;
},
{
name = _corner.serifCapLeft;
origin = (1,0);
scale = (1.2,1);
type = Corner;
},
{
name = _corner.serifCapLeft;
origin = (1,2);
scale = (1.3,1);
type = Corner;
},
{
name = _corner.serifCapLeft;
options = 1;
origin = (1,3);
scale = (0.6,-1);
type = Corner;
}
);
layerId = m01;
shapes = (
{
closed = 1;
nodes = (
(82,0,l),
(352,700,l),
(331,700,l),
(61,0,l)
);
},
{
closed = 1;
nodes = (
(359,700,l),
(331,700,l),
(601,0,l),
(629,0,l)
);
},
{
closed = 1;
nodes = (
(168,242,l),
(517,242,l),
(517,258,l),
(168,258,l)
);
}
);
width = 690;
},
{
associatedMasterId = m01;
background = {
hints = (
{
name = _corner.serifCapLeft;
options = 1;
origin = (0,0);
scale = (1.3,-1);
type = Corner;
},
{
name = _corner.serifCapLeft;
options = 1;
origin = (0,2);
scale = (1,-1);
type = Corner;
},
{
name = _corner.serifCapLeft;
origin = (0,3);
scale = (0.6,1);
type = Corner;
},
{
name = _corner.serifCapLeft;
origin = (1,0);
scale = (1.2,1);
type = Corner;
},
{
name = _corner.serifCapLeft;
origin = (1,2);
scale = (1.3,1);
type = Corner;
},
{
name = _corner.serifCapLeft;
options = 1;
origin = (1,3);
scale = (0.6,-1);
type = Corner;
}
);
shapes = (
{
closed = 1;
nodes = (
(82,0,l),
(352,700,l),
(331,700,l),
(61,0,l)
);
},
{
closed = 1;
nodes = (
(359,700,l),
(331,700,l),
(601,0,l),
(629,0,l)
);
},
{
closed = 1;
nodes = (
(168,242,l),
(517,242,l),
(517,258,l),
(168,258,l)
);
}
);
};
hints = (
{
name = _corner.serifCapLeft;
origin = (0,2);
scale = (1.3,1);
type = Corner;
},
{
name = _corner.serifCapLeft;
options = 1;
origin = (0,3);
scale = (0.6,-1);
type = Corner;
},
{
name = _corner.serifCapLeft;
options = 1;
origin = (0,1);
scale = (1,-1);
type = Corner;
}
);
layerId = "1711142F-650C-487E-9235-9C19D127C159";
name = "21 Apr 26 at 14.32";
shapes = (
{
closed = 1;
nodes = (
(359,700,l),
(331,700,l),
(601,0,l),
(629,0,l)
);
},
{
closed = 1;
nodes = (
(417,502,l),
(435,202,o),
(357,-6,o),
(202,-6,cs),
(129,-6,o),
(102,43,o),
(102,124,cs),
(102,333,o),
(308,502,o),
(386,566,c),
(383,575,l),
(297,511,o),
(67,334,o),
(67,132,cs),
(67,37,o),
(117,-16,o),
(200,-16,cs),
(369,-16,o),
(448,194,o),
(426,501,c)
);
}
);
width = 690;
},
{
associatedMasterId = m01;
background = {
hints = (
{
name = _corner.serifCapLeft;
options = 1;
origin = (0,0);
scale = (1.3,-1);
type = Corner;
},
{
name = _corner.serifCapLeft;
options = 1;
origin = (0,2);
scale = (1,-1);
type = Corner;
},
{
name = _corner.serifCapLeft;
origin = (0,3);
scale = (0.6,1);
type = Corner;
},
{
name = _corner.serifCapLeft;
origin = (1,0);
scale = (1.2,1);
type = Corner;
},
{
name = _corner.serifCapLeft;
origin = (1,2);
scale = (1.3,1);
type = Corner;
},
{
name = _corner.serifCapLeft;
options = 1;
origin = (1,3);
scale = (0.6,-1);
type = Corner;
}
);
shapes = (
{
closed = 1;
nodes = (
(82,0,l),
(352,700,l),
(331,700,l),
(61,0,l)
);
},
{
closed = 1;
nodes = (
(359,700,l),
(331,700,l),
(601,0,l),
(629,0,l)
);
},
{
closed = 1;
nodes = (
(168,242,l),
(517,242,l),
(517,258,l),
(168,258,l)
);
}
);
};
hints = (
{
name = _corner.serifCapLeft;
origin = (0,2);
scale = (1.3,1);
type = Corner;
},
{
name = _corner.serifCapLeft;
options = 1;
origin = (0,3);
scale = (0.6,-1);
type = Corner;
},
{
name = _corner.serifCapLeft;
options = 1;
origin = (0,1);
scale = (1,-1);
type = Corner;
}
);
layerId = "E9D0C3CF-250B-4D4B-904C-90B81B2DF9E3";
name = "21 Apr 26 at 14.36";
shapes = (
{
closed = 1;
nodes = (
(359,700,l),
(331,700,l),
(601,0,l),
(629,0,l)
);
},
{
closed = 1;
nodes = (
(477,352,l),
(165,-1,l),
(112,39,o),
(102,93,o),
(102,174,cs),
(102,383,o),
(308,502,o),
(406,556,c),
(403,565,l),
(297,511,o),
(67,384,o),
(67,182,cs),
(67,87,o),
(97,24,o),
(170,-16,c),
(485,341,l)
);
}
);
width = 690;
}
);
},
{
glyphname = E.ss01;
kernLeft = H;
kernRight = E.ss01;
lastChange = "2026-04-22 03:20:53 +0000";
layers = (
{
hints = (
{
name = _corner.serifCapLeft;
options = 1;
origin = (0,2);
scale = (1,-1);
type = Corner;
},
{
name = _corner.serifCapLeft;
origin = (0,3);
type = Corner;
},
{
name = _corner.serifCapLeft;
options = 1;
origin = (1,1);
scale = (1.7,-1.1);
type = Corner;
},
{
name = _corner.serifCapLeft;
origin = (2,0);
type = Corner;
},
{
name = _corner.serifCapLeft;
options = 2;
origin = (2,1);
scale = (-1,1);
type = Corner;
},
{
name = _corner.serifCapLeft;
origin = (3,0);
scale = (1.5,1.1);
type = Corner;
}
);
layerId = m01;
shapes = (
{
closed = 1;
nodes = (
(152,0,l),
(152,700,l),
(124,700,l),
(124,0,l)
);
},
{
closed = 1;
nodes = (
(520,0,l),
(522,16,l),
(143,16,l),
(143,0,l)
);
},
{
closed = 1;
nodes = (
(432,363,l),
(432,377,l),
(143,377,l),
(143,363,l)
);
},
{
closed = 1;
nodes = (
(512,684,l),
(510,700,l),
(143,700,l),
(143,684,l)
);
}
);
width = 587;
}
);
metricLeft = "=H";
},
{
glyphname = F.ss01;
kernLeft = H;
kernRight = F.ss01;
lastChange = "2026-04-22 03:21:03 +0000";
layers = (
{
hints = (
{
name = _corner.serifCapLeft;
options = 1;
origin = (0,3);
scale = (1,-1);
type = Corner;
},
{
name = _corner.serifCapLeft;
origin = (1,0);
type = Corner;
},
{
name = _corner.serifCapLeft;
options = 2;
origin = (1,1);
scale = (-1,1);
type = Corner;
},
{
name = _corner.serifCapLeft;
origin = (2,0);
scale = (1.5,1.1);
type = Corner;
}
);
layerId = m01;
shapes = (
{
closed = 1;
nodes = (
(139,-130,l),
(152,80,l),
(152,700,l),
(124,700,l),
(124,-130,l)
);
},
{
closed = 1;
nodes = (
(452,263,l),
(452,277,l),
(143,277,l),
(143,263,l)
);
},
{
closed = 1;
nodes = (
(512,684,l),
(510,700,l),
(143,700,l),
(143,684,l)
);
}
);
width = 560;
}
);
metricLeft = "=F";
},
{
glyphname = H.ss01;
kernLeft = H;
kernRight = H.ss01;
lastChange = "2026-04-22 03:21:13 +0000";
layers = (
{
hints = (
{
name = _corner.serifCapLeft;
options = 1;
origin = (0,0);
scale = (1,-1);
type = Corner;
},
{
name = _corner.serifCapLeft;
options = 1;
origin = (0,2);
scale = (1,-1);
type = Corner;
},
{
name = _corner.serifCapLeft;
origin = (0,3);
type = Corner;
}
);
layerId = m01;
shapes = (
{
closed = 1;
nodes = (
(152,0,l),
(152,700,l),
(124,700,l),
(124,0,l)
);
},
{
closed = 1;
nodes = (
(560,72,o),
(667,228,o),
(667,379,cs),
(667,540,o),
(552,646,o),
(402,646,cs),
(245,646,o),
(139,526,o),
(143,328,c),
(152,328,l),
(152,518,o),
(253,632,o),
(402,632,cs),
(536,632,o),
(632,532,o),
(632,379,cs),
(632,236,o),
(549,82,o),
(434,12,c),
(434,0,l),
(699,0,l),
(699,12,l),
(468,26,l),
(440,3,l)
);
}
);
width = 724;
}
);
metricLeft = "=H";
metricRight = "=|";
},
{
glyphname = R.ss01;
kernLeft = H;
kernRight = R;
lastChange = "2026-04-22 03:21:32 +0000";
layers = (
{
background = {
hints = (
{
name = _corner.serifCapLeft;
options = 1;
origin = (1,0);
scale = (1,-1);
type = Corner;
},
{
name = _corner.serifCapLeft;
options = 1;
origin = (1,2);
scale = (1,-1);
type = Corner;
},
{
name = _corner.serifCapLeft;
origin = (1,3);
type = Corner;
}
);
shapes = (
{
closed = 1;
nodes = (
(382,333,ls),
(501,333,o),
(576,404,o),
(576,516,cs),
(576,629,o),
(501,700,o),
(382,700,cs),
(143,700,l),
(143,684,l),
(382,684,ls),
(480,684,o),
(541,619,o),
(541,516,cs),
(541,412,o),
(480,349,o),
(382,349,cs),
(143,349,l),
(143,333,l)
);
},
{
closed = 1;
nodes = (
(152,0,l),
(152,700,l),
(124,700,l),
(124,0,l)
);
},
{
closed = 1;
nodes = (
(599,-111,l),
(614,-111,l),
(392,345,l),
(357,345,l)
);
}
);
};
hints = (
{
name = _corner.serifCapLeft;
options = 1;
origin = (1,2);
scale = (1,-1);
type = Corner;
}
);
layerId = m01;
shapes = (
{
closed = 1;
nodes = (
(382,333,ls),
(501,333,o),
(576,404,o),
(576,516,cs),
(576,629,o),
(501,700,o),
(382,700,cs),
(143,700,l),
(143,684,l),
(382,684,ls),
(480,684,o),
(541,619,o),
(541,516,cs),
(541,412,o),
(480,349,o),
(382,349,cs),
(143,349,l),
(143,333,l)
);
},
{
closed = 1;
nodes = (
(152,-100,l),
(152,700,l),
(124,700,l),
(124,-100,l)
);
},
{
closed = 1;
nodes = (
(574,0,l),
(589,0,l),
(390,345,l),
(350,345,l)
);
}
);
width = 590;
}
);
metricLeft = "=H";
},
{
glyphname = a;
kernLeft = a;
kernRight = a;
lastChange = "2026-04-22 03:27:46 +0000";
layers = (
{
hints = (
{
name = _corner.serifLeft;
options = 1;
origin = (0,0);
scale = (1,-1);
type = Corner;
}
);
layerId = m01;
shapes = (
{
closed = 1;
nodes = (
(512,0,l),
(332,500,l),
(307,500,l),
(487,0,l)
);
},
{
closed = 1;
nodes = (
(394,260,l),
(432,150,o),
(387,-6,o),
(232,-6,cs),
(129,-6,o),
(87,63,o),
(87,144,cs),
(87,283,o),
(224,333,o),
(367,356,c),
(364,365,l),
(213,342,o),
(57,284,o),
(57,144,cs),
(57,57,o),
(117,-16,o),
(230,-16,cs),
(399,-16,o),
(442,147,o),
(400,264,c)
);
},
{
closed = 1;
nodes = (
(187,490,l),
(332,480,l),
(332,500,l),
(187,500,l)
);
}
);
width = 623;
},
{
associatedMasterId = m01;
hints = (
{
name = _corner.serifLeft;
options = 1;
origin = (0,0);
scale = (1,-1);
type = Corner;
}
);
layerId = "3A269B5B-6826-4A34-829F-E68F2560C6DB";
name = "20 Apr 26 at 13.59";
shapes = (
{
closed = 1;
nodes = (
(439,0,l),
(439,500,l),
(414,500,l),
(414,0,l)
);
},
{
closed = 1;
nodes = (
(90,490,l),
(414,480,l),
(414,500,l),
(90,500,l)
);
},
{
closed = 1;
nodes = (
(414,480,l),
(400,361,o),
(52,323,o),
(52,133,cs),
(52,67,o),
(95,-16,o),
(223,-16,cs),
(358,-16,o),
(424,101,o),
(424,236,c),
(414,236,l),
(414,87,o),
(342,-6,o),
(223,-6,cs),
(114,-6,o),
(82,73,o),
(82,133,cs),
(82,317,o),
(369,335,o),
(414,458,c)
);
}
);
width = 600;
},
{
associatedMasterId = m01;
hints = (
{
name = _corner.serifLeft;
options = 1;
origin = (0,0);
scale = (1,-1);
type = Corner;
}
);
layerId = "51D7168D-8C54-46F6-A2A8-F23017312B02";
name = "20 Apr 26 at 14.11";
shapes = (
{
closed = 1;
nodes = (
(477,0,l),
(357,500,l),
(332,500,l),
(452,0,l)
);
},
{
closed = 1;
nodes = (
(397,230,l),
(418,113,o),
(346,-6,o),
(214,-6,cs),
(112,-6,o),
(80,63,o),
(80,134,cs),
(80,273,o),
(207,323,o),
(370,346,c),
(367,355,l),
(196,332,o),
(50,274,o),
(50,134,cs),
(50,57,o),
(100,-16,o),
(214,-16,cs),
(358,-16,o),
(428,110,o),
(403,234,c)
);
}
);
width = 608;
},
{
associatedMasterId = m01;
hints = (
{
name = _corner.serifLeft;
options = 1;
origin = (0,0);
scale = (1,-1);
type = Corner;
}
);
layerId = "CF918641-8244-43B6-A197-1BC173F1004D";
name = "21 Apr 26 at 14.34";
shapes = (
{
closed = 1;
nodes = (
(512,0,l),
(332,500,l),
(307,500,l),
(487,0,l)
);
},
{
closed = 1;
nodes = (
(394,260,l),
(432,150,o),
(387,-6,o),
(232,-6,cs),
(129,-6,o),
(87,63,o),
(87,144,cs),
(87,283,o),
(224,333,o),
(367,356,c),
(364,365,l),
(213,342,o),
(57,284,o),
(57,144,cs),
(57,57,o),
(117,-16,o),
(230,-16,cs),
(399,-16,o),
(442,147,o),
(400,264,c)
);
},
{
closed = 1;
nodes = (
(187,490,l),
(332,480,l),
(332,500,l),
(187,500,l)
);
}
);
width = 623;
},
{
associatedMasterId = m01;
hints = (
{
name = _corner.serifLeft;
options = 1;
origin = (0,0);
scale = (1,-1);
type = Corner;
}
);
layerId = "9940A59C-DF36-47FC-979A-BE53F994ED90";
name = "21 Apr 26 at 14.36";
shapes = (
{
closed = 1;
nodes = (
(512,0,l),
(332,500,l),
(307,500,l),
(487,0,l)
);
},
{
closed = 1;
nodes = (
(391,301,l),
(224,-3,l),
(129,7,o),
(87,63,o),
(87,144,cs),
(87,283,o),
(224,333,o),
(367,356,c),
(364,365,l),
(213,342,o),
(57,284,o),
(57,144,cs),
(57,57,o),
(117,-16,o),
(230,-16,c),
(395,285,l)
);
},
{
closed = 1;
nodes = (
(187,490,l),
(332,480,l),
(332,500,l),
(187,500,l)
);
}
);
width = 623;
}
);
unicode = 97;
},
{
glyphname = b;
kernLeft = l;
kernRight = b;
lastChange = "2026-04-21 04:15:12 +0000";
layers = (
{
hints = (
{
name = _corner.serifLeft;
options = 1;
origin = (2,2);
scale = (1,-1);
type = Corner;
},
{
name = _corner.serifLeft;
origin = (2,3);
type = Corner;
}
);
layerId = m01;
shapes = (
{
closed = 1;
nodes = (
(494,-16,o),
(591,94,o),
(591,251,cs),
(591,407,o),
(494,516,o),
(355,516,cs),
(216,516,o),
(139,407,o),
(139,251,cs),
(139,94,o),
(216,-16,o),
(355,-16,cs)
);
},
{
closed = 1;
nodes = (
(228,-6,o),
(149,100,o),
(149,251,cs),
(149,401,o),
(228,506,o),
(355,506,cs),
(482,506,o),
(561,401,o),
(561,251,cs),
(561,100,o),
(482,-6,o),
(355,-6,cs)
);
},
{
closed = 1;
nodes = (
(149,0,l),
(149,720,l),
(124,710,l),
(124,0,l)
);
}
);
width = 631;
}
);
metricLeft = "=l";
metricRight = "=o";
unicode = 98;
},
{
glyphname = c;
kernLeft = o;
kernRight = c;
lastChange = "2026-04-22 03:25:26 +0000";
layers = (
{
layerId = m01;
shapes = (
{
closed = 1;
nodes = (
(337,-16,o),
(407,18,o),
(449,97,c),
(441,101,l),
(403,27,o),
(329,-6,o),
(266,-6,cs),
(149,-6,o),
(70,100,o),
(70,251,cs),
(70,401,o),
(139,506,o),
(272,506,cs),
(358,506,o),
(402,459,o),
(402,404,cs),
(402,299,l),
(412,299,l),
(424,453,l),
(385,504,o),
(316,516,o),
(272,516,cs),
(127,516,o),
(40,407,o),
(40,251,cs),
(40,94,o),
(137,-16,o),
(266,-16,cs)
);
}
);
width = 474;
}
);
metricLeft = "=o";
unicode = 99;
},
{
glyphname = d;
kernLeft = o;
kernRight = l;
lastChange = "2026-04-20 08:04:25 +0000";
layers = (
{
hints = (
{
name = _corner.serifLeft;
options = 1;
origin = (2,0);
scale = (1,-1);
type = Corner;
},
{
name = _corner.serifLeft;
options = 1;
origin = (2,2);
scale = (1,-1);
type = Corner;
}
);
layerId = m01;
shapes = (
{
closed = 1;
nodes = (
(415,-16,o),
(492,94,o),
(492,251,cs),
(492,407,o),
(415,516,o),
(276,516,cs),
(137,516,o),
(40,407,o),
(40,251,cs),
(40,94,o),
(137,-16,o),
(276,-16,cs)
);
},
{
closed = 1;
nodes = (
(149,-6,o),
(70,100,o),
(70,251,cs),
(70,401,o),
(149,506,o),
(276,506,cs),
(403,506,o),
(482,401,o),
(482,251,cs),
(482,100,o),
(403,-6,o),
(276,-6,cs)
);
},
{
closed = 1;
nodes = (
(507,0,l),
(507,720,l),
(482,710,l),
(482,0,l)
);
}
);
width = 651;
}
);
metricLeft = "=o";
metricRight = "=l";
unicode = 100;
},
{
glyphname = e;
kernLeft = o;
kernRight = e;
lastChange = "2026-04-20 09:53:37 +0000";
layers = (
{
layerId = m01;
shapes = (
{
closed = 1;
nodes = (
(307,282,l),
(369,290,o),
(417,329,o),
(417,391,cs),
(417,468,o),
(344,516,o),
(261,516,cs),
(135,516,o),
(40,407,o),
(40,251,cs),
(40,94,o),
(136,-16,o),
(266,-16,cs),
(347,-16,o),
(417,28,o),
(459,97,c),
(451,101,l),
(413,37,o),
(340,-6,o),
(266,-6,cs),
(150,-6,o),
(70,98,o),
(70,251,cs),
(70,401,o),
(150,506,o),
(261,506,cs),
(331,506,o),
(391,464,o),
(391,391,cs),
(391,343,o),
(364,297,o),
(307,285,c)
);
},
{
closed = 1;
nodes = (
(54,270,l),
(487,270,l),
(487,290,l),
(54,280,l)
);
}
);
width = 507;
},
{
associatedMasterId = m01;
layerId = "3A9D6F84-DFB8-4104-9D93-9AF049953B51";
name = "20 Apr 26 at 14.51";
shapes = (
{
closed = 1;
nodes = (
(487,281,l),
(487,407,o),
(398,516,o),
(267,516,cs),
(137,516,o),
(40,407,o),
(40,251,cs),
(40,94,o),
(137,-16,o),
(272,-16,cs),
(358,-16,o),
(428,27,o),
(469,97,c),
(463,101,l),
(425,36,o),
(348,-6,o),
(272,-6,cs),
(149,-6,o),
(70,100,o),
(70,251,cs),
(70,401,o),
(149,506,o),
(267,506,cs),
(386,506,o),
(457,401,o),
(457,281,c)
);
},
{
closed = 1;
nodes = (
(54,281,l),
(487,281,l),
(487,290,l),
(54,290,l)
);
}
);
width = 600;
},
{
associatedMasterId = m01;
layerId = "FE9F22AA-FABA-44BD-9AC2-86BF72C99B47";
name = "20 Apr 26 at 14.57";
shapes = (
{
closed = 1;
nodes = (
(257,288,l),
(339,296,o),
(402,335,o),
(402,406,cs),
(402,480,o),
(332,516,o),
(256,516,cs),
(127,516,o),
(40,407,o),
(40,251,cs),
(40,94,o),
(137,-16,o),
(272,-16,cs),
(358,-16,o),
(428,27,o),
(469,97,c),
(463,101,l),
(425,36,o),
(348,-6,o),
(272,-6,cs),
(149,-6,o),
(70,100,o),
(70,251,cs),
(70,401,o),
(149,506,o),
(256,506,cs),
(313,506,o),
(376,477,o),
(376,403,cs),
(376,322,o),
(303,298,o),
(257,295,c)
);
},
{
closed = 1;
nodes = (
(54,281,l),
(487,281,l),
(487,301,l),
(54,291,l)
);
}
);
width = 600;
}
);
metricLeft = "=o";
unicode = 101;
},
{
glyphname = f;
kernLeft = f;
kernRight = f;
lastChange = "2026-04-21 07:18:04 +0000";
layers = (
{
hints = (
{
name = _corner.serifLeft;
origin = (0,12);
type = Corner;
},
{
name = _corner.serifLeft;
options = 1;
origin = (0,13);
scale = (1,-1);
type = Corner;
}
);
layerId = m01;
shapes = (
{
closed = 1;
nodes = (
(366,710,o),
(391,664,o),
(391,607,cs),
(391,562,l),
(401,562,l),
(413,666,l),
(384,691,o),
(358,720,o),
(281,720,cs),
(190,720,o),
(128,681,o),
(128,564,cs),
(128,0,l),
(153,0,l),
(153,564,ls),
(153,675,o),
(202,710,o),
(279,710,cs)
);
},
{
closed = 1;
nodes = (
(20,486,l),
(317,486,l),
(317,500,l),
(20,500,l)
);
}
);
width = 359;
}
);
unicode = 102;
},
{
glyphname = g;
kernLeft = g;
kernRight = g;
lastChange = "2026-04-22 09:20:40 +0000";
layers = (
{
anchors = (
{
name = bottom;
pos = (246,-200);
},
{
name = top;
pos = (246,500);
}
);
layerId = m01;
shapes = (
{
closed = 1;
nodes = (
(356,-215,o),
(441,-156,o),
(441,-55,cs),
(441,29,o),
(390,120,o),
(132,101,c),
(137,94,l),
(308,225,l),
(296,230,l),
(123,101,l),
(128,89,l),
(353,96,o),
(411,32,o),
(411,-52,cs),
(411,-146,o),
(349,-200,o),
(237,-200,cs),
(103,-200,o),
(68,-127,o),
(53,-82,c),
(44,-85,l),
(52,-143,o),
(99,-215,o),
(237,-215,cs)
);
},
{
closed = 1;
nodes = (
(309,197,o),
(373,263,o),
(373,357,cs),
(373,450,o),
(309,516,o),
(209,516,cs),
(108,516,o),
(45,450,o),
(45,357,cs),
(45,263,o),
(108,197,o),
(209,197,cs)
);
},
{
closed = 1;
nodes = (
(116,207,o),
(75,267,o),
(75,357,cs),
(75,447,o),
(116,506,o),
(209,506,cs),
(302,506,o),
(343,447,o),
(343,357,cs),
(343,267,o),
(302,207,o),
(209,207,cs)
);
},
{
closed = 1;
nodes = (
(276,495,l),
(447,521,l),
(447,531,l),
(209,516,l)
);
}
);
width = 492;
},
{
associatedMasterId = m01;
layerId = "20ED8146-90E5-41CA-90DF-F3A6FAB4EF87";
name = "21 Apr 26 at 11.10";
shapes = (
{
closed = 1;
nodes = (
(376,-215,o),
(461,-156,o),
(461,-55,cs),
(461,29,o),
(403,98,o),
(282,121,c),
(287,114,l),
(365,262,l),
(353,260,l),
(273,121,l),
(278,109,l),
(388,79,o),
(431,32,o),
(431,-52,cs),
(431,-146,o),
(369,-200,o),
(257,-200,cs),
(103,-200,o),
(68,-97,o),
(53,-42,c),
(44,-45,l),
(52,-113,o),
(99,-215,o),
(257,-215,cs)
);
},
{
closed = 1;
nodes = (
(329,197,o),
(393,263,o),
(393,357,cs),
(393,450,o),
(329,516,o),
(229,516,cs),
(128,516,o),
(65,450,o),
(65,357,cs),
(65,263,o),
(128,197,o),
(229,197,cs)
);
},
{
closed = 1;
nodes = (
(136,207,o),
(95,267,o),
(95,357,cs),
(95,447,o),
(136,506,o),
(229,506,cs),
(322,506,o),
(363,447,o),
(363,357,cs),
(363,267,o),
(322,207,o),
(229,207,cs)
);
},
{
closed = 1;
nodes = (
(341,478,l),
(343,550,o),
(373,600,o),
(435,600,cs),
(472,600,o),
(494,584,o),
(494,540,cs),
(494,498,l),
(501,498,l),
(509,588,l),
(487,603,o),
(466,613,o),
(438,613,cs),
(369,613,o),
(331,553,o),
(333,478,c)
);
}
);
width = 512;
},
{
associatedMasterId = m01;
layerId = "ED89C134-4000-4773-9A1C-B8EB210B45C9";
name = "22 Apr 26 at 09.46";
shapes = (
{
closed = 1;
nodes = (
(356,-215,o),
(441,-156,o),
(441,-55,cs),
(441,29,o),
(390,120,o),
(132,101,c),
(137,94,l),
(308,225,l),
(296,230,l),
(123,101,l),
(128,89,l),
(353,96,o),
(411,32,o),
(411,-52,cs),
(411,-146,o),
(349,-200,o),
(237,-200,cs),
(103,-200,o),
(68,-127,o),
(53,-82,c),
(44,-85,l),
(52,-143,o),
(99,-215,o),
(237,-215,cs)
);
},
{
closed = 1;
nodes = (
(309,197,o),
(373,263,o),
(373,357,cs),
(373,450,o),
(309,516,o),
(209,516,cs),
(108,516,o),
(45,450,o),
(45,357,cs),
(45,263,o),
(108,197,o),
(209,197,cs)
);
},
{
closed = 1;
nodes = (
(116,207,o),
(75,267,o),
(75,357,cs),
(75,447,o),
(116,506,o),
(209,506,cs),
(302,506,o),
(343,447,o),
(343,357,cs),
(343,267,o),
(302,207,o),
(209,207,cs)
);
},
{
closed = 1;
nodes = (
(209,506,l),
(447,524,l),
(447,544,l),
(209,516,l)
);
}
);
width = 492;
}
);
unicode = 103;
},
{
glyphname = h;
kernLeft = l;
kernRight = n;
lastChange = "2026-04-21 04:14:37 +0000";
layers = (
{
hints = (
{
name = _corner.serifLeft;
options = 1;
origin = (0,0);
scale = (1,-1);
type = Corner;
},
{
name = _corner.serifLeft;
options = 1;
origin = (0,2);
scale = (1,-1);
type = Corner;
},
{
name = _corner.serifLeft;
origin = (0,3);
type = Corner;
}
);
layerId = m01;
shapes = (
{
closed = 1;
nodes = (
(149,0,l),
(149,720,l),
(124,710,l),
(124,0,l)
);
},
{
closed = 1;
nodes = (
(480,52,o),
(553,144,o),
(553,280,cs),
(553,427,o),
(466,516,o),
(343,516,cs),
(234,516,o),
(139,437,o),
(142,251,c),
(149,251,l),
(149,431,o),
(240,506,o),
(343,506,cs),
(454,506,o),
(523,421,o),
(523,280,cs),
(523,150,o),
(464,59,o),
(377,9,c),
(377,0,l),
(592,0,l),
(592,10,l),
(403,20,l),
(389,2,l)
);
}
);
width = 622;
}
);
metricLeft = "=n";
metricRight = "=n";
unicode = 104;
},
{
glyphname = idotless;
kernLeft = n;
kernRight = u;
lastChange = "2026-04-21 04:14:17 +0000";
layers = (
{
anchors = (
{
name = bottom;
pos = (127,0);
},
{
name = ogonek;
pos = (233,0);
},
{
name = top;
pos = (102,500);
}
);
hints = (
{
name = _corner.serifLeft;
options = 1;
origin = (0,0);
scale = (1,-1);
type = Corner;
},
{
name = _corner.serifLeft;
options = 1;
origin = (0,2);
scale = (1,-1);
type = Corner;
},
{
name = _corner.serifLeft;
origin = (0,3);
type = Corner;
}
);
layerId = m01;
shapes = (
{
closed = 1;
nodes = (
(139,0,l),
(139,500,l),
(114,500,l),
(114,0,l)
);
}
);
width = 253;
}
);
unicode = 305;
},
{
glyphname = jdotless;
kernLeft = j;
kernRight = j;
lastChange = "2026-04-22 03:21:54 +0000";
layers = (
{
anchors = (
{
name = bottom;
pos = (120,-200);
},
{
name = top;
pos = (102,500);
}
);
hints = (
{
name = _corner.serifLeft;
options = 1;
origin = (0,8);
scale = (1,-1);
type = Corner;
}
);
layerId = m01;
shapes = (
{
closed = 1;
nodes = (
(114,-171,o),
(75,-186,o),
(32,-206,c),
(36,-216,l),
(87,-196,o),
(139,-177,o),
(139,-70,cs),
(139,500,l),
(114,500,l),
(114,-70,ls)
);
}
);
width = 240;
},
{
anchors = (
{
name = bottom;
pos = (120,-200);
},
{
name = top;
pos = (102,500);
}
);
associatedMasterId = m01;
hints = (
{
name = _corner.serifLeft;
options = 1;
origin = (0,16);
scale = (1,-1);
type = Corner;
}
);
layerId = "35C8D7EC-FA2D-43CC-98DC-2DE653579F1C";
name = "21 Apr 26 at 10.36";
shapes = (
{
closed = 1;
nodes = (
(114,-171,o),
(75,-206,o),
(22,-206,cs),
(-14,-206,o),
(-44,-190,o),
(-44,-136,cs),
(-44,-58,l),
(-54,-58,l),
(-66,-192,l),
(-46,-203,o),
(-16,-216,o),
(22,-216,cs),
(87,-216,o),
(139,-177,o),
(139,-70,cs),
(139,500,l),
(114,500,l),
(114,-70,ls)
);
}
);
width = 240;
}
);
unicode = 567;
},
{
glyphname = k;
kernLeft = l;
kernRight = k;
lastChange = "2026-04-22 03:25:45 +0000";
layers = (
{
hints = (
{
name = _corner.serifLeft;
options = 1;
origin = (2,0);
scale = (1,-1);
type = Corner;
},
{
name = _corner.serifLeft;
options = 1;
origin = (2,2);
scale = (1,-1);
type = Corner;
},
{
name = _corner.serifLeft;
origin = (2,3);
type = Corner;
}
);
layerId = m01;
shapes = (
{
closed = 1;
nodes = (
(174,199,o),
(212,195,o),
(251,195,cs),
(382,195,o),
(513,242,o),
(513,369,cs),
(513,447,o),
(456,516,o),
(348,516,cs),
(234,516,o),
(139,437,o),
(142,251,c),
(149,251,l),
(149,431,o),
(240,506,o),
(348,506,cs),
(444,506,o),
(483,441,o),
(483,369,cs),
(483,247,o),
(369,204,o),
(247,204,cs),
(210,204,o),
(172,208,o),
(136,215,c),
(138,206,l)
);
},
{
closed = 1;
nodes = (
(538,-60,l),
(352,208,l),
(312,203,l),
(524,-60,l)
);
},
{
closed = 1;
nodes = (
(149,0,l),
(149,720,l),
(124,710,l),
(124,0,l)
);
}
);
width = 572;
}
);
metricLeft = "=l";
unicode = 107;
},
{
glyphname = l;
kernLeft = l;
kernRight = l;
lastChange = "2026-04-22 03:25:34 +0000";
layers = (
{
hints = (
{
name = _corner.serifLeft;
options = 1;
origin = (0,0);
scale = (1,-1);
type = Corner;
},
{
name = _corner.serifLeft;
options = 1;
origin = (0,2);
scale = (1,-1);
type = Corner;
},
{
name = _corner.serifLeft;
origin = (0,3);
type = Corner;
}
);
layerId = m01;
shapes = (
{
closed = 1;
nodes = (
(149,0,l),
(149,720,l),
(124,710,l),
(124,0,l)
);
}
);
width = 293;
}
);
metricLeft = "=n";
unicode = 108;
},
{
glyphname = m;
kernLeft = n;
kernRight = n;
lastChange = "2026-04-20 09:05:52 +0000";
layers = (
{
hints = (
{
name = _corner.serifLeft;
options = 1;
origin = (0,0);
scale = (1,-1);
type = Corner;
},
{
name = _corner.serifLeft;
options = 1;
origin = (0,2);
scale = (1,-1);
type = Corner;
},
{
name = _corner.serifLeft;
origin = (0,3);
type = Corner;
},
{
name = _corner.serifLeft;
options = 1;
origin = (1,14);
scale = (1,-1);
type = Corner;
},
{
name = _corner.serifLeft;
origin = (1,13);
type = Corner;
}
);
layerId = m01;
shapes = (
{
closed = 1;
nodes = (
(139,0,l),
(139,500,l),
(114,500,l),
(114,0,l)
);
},
{
closed = 1;
nodes = (
(478,477,o),
(396,516,o),
(322,516,cs),
(224,516,o),
(129,437,o),
(132,251,c),
(139,251,l),
(139,431,o),
(230,506,o),
(322,506,cs),
(384,506,o),
(453,471,o),
(453,360,cs),
(453,0,l),
(478,0,l),
(478,360,ls)
);
},
{
closed = 1;
nodes = (
(779,52,o),
(852,164,o),
(852,300,cs),
(852,447,o),
(765,516,o),
(667,516,cs),
(563,516,o),
(468,437,o),
(471,251,c),
(478,251,l),
(478,431,o),
(569,506,o),
(667,506,cs),
(753,506,o),
(822,441,o),
(822,300,cs),
(822,170,o),
(763,59,o),
(676,9,c),
(676,0,l),
(891,0,l),
(891,10,l),
(702,20,l),
(688,2,l)
);
}
);
width = 921;
},
{
associatedMasterId = m01;
layerId = "07880794-6F6C-4526-872B-1E160CEAA9D6";
name = "20 Apr 26 at 14.42";
shapes = (
{
closed = 1;
nodes = (
(398,0,l),
(398,500,l),
(373,500,l),
(373,0,l)
);
},
{
closed = 1;
nodes = (
(659,52,o),
(732,164,o),
(732,300,cs),
(732,467,o),
(645,516,o),
(553,516,cs),
(453,516,o),
(388,437,o),
(391,251,c),
(398,251,l),
(398,431,o),
(459,506,o),
(553,506,cs),
(633,506,o),
(702,461,o),
(702,300,cs),
(702,170,o),
(643,59,o),
(556,9,c),
(556,0,l),
(751,0,l),
(751,10,l),
(582,20,l),
(568,2,l)
);
},
{
closed = 1;
nodes = (
(189,20,l),
(20,10,l),
(20,0,l),
(215,0,l),
(215,9,l),
(128,59,o),
(69,170,o),
(69,300,cs),
(69,461,o),
(138,506,o),
(218,506,cs),
(312,506,o),
(373,431,o),
(373,251,c),
(380,251,l),
(383,437,o),
(318,516,o),
(218,516,cs),
(126,516,o),
(39,467,o),
(39,300,cs),
(39,164,o),
(112,52,o),
(203,2,c)
);
}
);
width = 801;
}
);
metricLeft = "=n";
metricRight = "=n";
unicode = 109;
},
{
glyphname = n;
kernLeft = n;
kernRight = n;
lastChange = "2026-04-20 09:05:23 +0000";
layers = (
{
hints = (
{
name = _corner.serifLeft;
origin = (0,3);
type = Corner;
},
{
name = _corner.serifLeft;
options = 1;
origin = (0,0);
scale = (1,-1);
type = Corner;
},
{
name = _corner.serifLeft;
options = 1;
origin = (0,2);
scale = (1,-1);
type = Corner;
}
);
layerId = m01;
shapes = (
{
closed = 1;
nodes = (
(139,0,l),
(139,500,l),
(114,500,l),
(114,0,l)
);
},
{
closed = 1;
nodes = (
(470,52,o),
(543,164,o),
(543,300,cs),
(543,447,o),
(456,516,o),
(343,516,cs),
(224,516,o),
(129,437,o),
(132,251,c),
(139,251,l),
(139,431,o),
(230,506,o),
(343,506,cs),
(444,506,o),
(513,441,o),
(513,300,cs),
(513,170,o),
(454,59,o),
(367,9,c),
(367,0,l),
(582,0,l),
(582,10,l),
(393,20,l),
(379,2,l)
);
}
);
width = 612;
},
{
associatedMasterId = m01;
layerId = "D315A5DD-0F3F-4ABE-8E31-02C881C5C3C6";
name = "20 Apr 26 at 11.53";
shapes = (
{
closed = 1;
nodes = (
(317,373,l),
(317,458,o),
(283,500,o),
(213,500,cs),
(143,500,o),
(96,456,o),
(71,367,c),
(76,364,l),
(99,447,o),
(142,488,o),
(204,488,cs),
(263,488,o),
(292,450,o),
(292,373,c)
);
},
{
closed = 1;
nodes = (
(87,0,l),
(87,500,l),
(62,500,l),
(62,0,l)
);
},
{
closed = 1;
nodes = (
(292,373,l),
(292,0,l),
(317,0,l),
(317,373,l)
);
}
);
width = 600;
}
);
unicode = 110;
},
{
glyphname = o;
kernLeft = o;
kernRight = o;
lastChange = "2026-04-20 10:40:52 +0000";
layers = (
{
layerId = m01;
shapes = (
{
closed = 1;
nodes = (
(415,-16,o),
(512,94,o),
(512,251,cs),
(512,407,o),
(415,516,o),
(276,516,cs),
(137,516,o),
(40,407,o),
(40,251,cs),
(40,94,o),
(137,-16,o),
(276,-16,cs)
);
},
{
closed = 1;
nodes = (
(149,-6,o),
(70,100,o),
(70,251,cs),
(70,401,o),
(149,506,o),
(276,506,cs),
(403,506,o),
(482,401,o),
(482,251,cs),
(482,100,o),
(403,-6,o),
(276,-6,cs)
);
}
);
width = 552;
}
);
unicode = 111;
},
{
glyphname = p;
kernLeft = p;
kernRight = o;
lastChange = "2026-04-21 04:13:34 +0000";
layers = (
{
hints = (
{
name = _corner.serifLeft;
options = 1;
origin = (2,0);
scale = (1,-1);
type = Corner;
},
{
name = _corner.serifLeft;
options = 1;
origin = (2,2);
scale = (2,-1);
type = Corner;
},
{
name = _corner.serifLeft;
origin = (2,1);
type = Corner;
}
);
layerId = m01;
shapes = (
{
closed = 1;
nodes = (
(206,516,o),
(129,406,o),
(129,249,cs),
(129,93,o),
(206,-16,o),
(345,-16,cs),
(484,-16,o),
(581,93,o),
(581,249,cs),
(581,406,o),
(484,516,o),
(345,516,cs)
);
},
{
closed = 1;
nodes = (
(472,506,o),
(551,400,o),
(551,249,cs),
(551,99,o),
(472,-6,o),
(345,-6,cs),
(218,-6,o),
(139,99,o),
(139,249,cs),
(139,400,o),
(218,506,o),
(345,506,cs)
);
},
{
closed = 1;
nodes = (
(114,500,l),
(114,-170,l),
(139,-170,l),
(139,500,l)
);
}
);
width = 621;
}
);
metricLeft = "=n";
metricRight = "=o";
unicode = 112;
},
{
glyphname = q;
kernLeft = o;
kernRight = q;
lastChange = "2026-04-21 04:13:24 +0000";
layers = (
{
hints = (
{
name = _corner.serifLeft;
options = 1;
origin = (2,2);
scale = (1,-1);
type = Corner;
},
{
name = _corner.serifLeft;
origin = (2,1);
scale = (2,1);
type = Corner;
}
);
layerId = m01;
shapes = (
{
closed = 1;
nodes = (
(137,516,o),
(40,406,o),
(40,249,cs),
(40,93,o),
(137,-16,o),
(276,-16,cs),
(415,-16,o),
(492,93,o),
(492,249,cs),
(492,406,o),
(415,516,o),
(276,516,cs)
);
},
{
closed = 1;
nodes = (
(403,506,o),
(482,400,o),
(482,249,cs),
(482,99,o),
(403,-6,o),
(276,-6,cs),
(149,-6,o),
(70,99,o),
(70,249,cs),
(70,400,o),
(149,506,o),
(276,506,cs)
);
},
{
closed = 1;
nodes = (
(482,317,l),
(482,-170,l),
(507,-170,l),
(507,500,l),
(492,500,l)
);
}
);
width = 606;
}
);
metricLeft = "=o";
metricRight = "=|p-15";
unicode = 113;
},
{
glyphname = r;
kernLeft = n;
kernRight = r;
lastChange = "2026-04-22 03:26:32 +0000";
layers = (
{
hints = (
{
name = _corner.serifLeft;
origin = (1,3);
type = Corner;
},
{
name = _corner.serifLeft;
options = 1;
origin = (1,0);
scale = (1,-1);
type = Corner;
},
{
name = _corner.serifLeft;
options = 1;
origin = (1,2);
scale = (1,-1);
type = Corner;
}
);
layerId = m01;
shapes = (
{
closed = 1;
nodes = (
(139,251,l),
(139,408,o),
(193,506,o),
(288,506,cs),
(344,506,o),
(379,471,o),
(379,414,cs),
(379,319,l),
(389,319,l),
(401,473,l),
(368,499,o),
(336,516,o),
(292,516,cs),
(187,516,o),
(129,414,o),
(132,251,c)
);
},
{
closed = 1;
nodes = (
(139,0,l),
(139,500,l),
(114,500,l),
(114,0,l)
);
}
);
width = 441;
}
);
unicode = 114;
},
{
glyphname = s;
kernLeft = s;
kernRight = s;
lastChange = "2026-04-22 09:03:18 +0000";
layers = (
{
layerId = m01;
shapes = (
{
closed = 1;
nodes = (
(345,-6,o),
(372,58,o),
(372,108,cs),
(372,271,o),
(70,219,o),
(70,391,cs),
(70,477,o),
(150,516,o),
(235,516,cs),
(280,516,o),
(339,504,o),
(378,473,c),
(366,359,l),
(356,359,l),
(356,414,ls),
(356,459,o),
(322,506,o),
(235,506,cs),
(165,506,o),
(100,466,o),
(100,396,cs),
(100,239,o),
(402,291,o),
(402,116,cs),
(402,47,o),
(357,-16,o),
(235,-16,cs),
(166,-16,o),
(108,5,o),
(68,27,c),
(80,171,l),
(90,171,l),
(90,86,ls),
(90,31,o),
(148,-6,o),
(235,-6,cs)
);
}
);
width = 470;
}
);
unicode = 115;
},
{
glyphname = t;
kernLeft = t;
kernRight = t;
lastChange = "2026-04-21 10:40:07 +0000";
layers = (
{
layerId = m01;
shapes = (
{
closed = 1;
nodes = (
(337,-16,o),
(398,19,o),
(439,97,c),
(431,101,l),
(394,29,o),
(332,-6,o),
(260,-6,cs),
(150,-6,o),
(90,70,o),
(90,183,cs),
(90,336,o),
(200,437,o),
(318,487,c),
(312,497,l),
(175,446,o),
(60,340,o),
(60,183,cs),
(60,66,o),
(136,-16,o),
(260,-16,cs)
);
},
{
closed = 1;
nodes = (
(21,486,l),
(418,486,l),
(418,500,l),
(21,500,l)
);
}
);
width = 470;
}
);
unicode = 116;
},
{
glyphname = u;
kernLeft = u;
kernRight = u;
lastChange = "2026-04-20 10:49:06 +0000";
layers = (
{
hints = (
{
name = _corner.serifLeft;
options = 1;
origin = (0,0);
scale = (1,-1);
type = Corner;
},
{
name = _corner.serifLeft;
options = 1;
origin = (0,2);
scale = (1,-1);
type = Corner;
}
);
layerId = m01;
shapes = (
{
closed = 1;
nodes = (
(473,500,l),
(473,0,l),
(498,0,l),
(498,500,l)
);
},
{
closed = 1;
nodes = (
(142,448,o),
(69,336,o),
(69,200,cs),
(69,53,o),
(156,-16,o),
(269,-16,cs),
(388,-16,o),
(483,63,o),
(480,249,c),
(473,249,l),
(473,69,o),
(382,-6,o),
(269,-6,cs),
(168,-6,o),
(99,59,o),
(99,200,cs),
(99,330,o),
(158,441,o),
(245,491,c),
(245,500,l),
(30,500,l),
(30,490,l),
(219,480,l),
(233,498,l)
);
}
);
width = 612;
}
);
unicode = 117;
},
{
glyphname = v;
kernLeft = v;
kernRight = v;
lastChange = "2026-04-22 03:24:28 +0000";
layers = (
{
hints = (
{
name = _corner.serifLeft;
options = 1;
origin = (0,2);
scale = (0.6,-1);
type = Corner;
},
{
name = _corner.serifLeft;
origin = (0,1);
scale = (1.3,1);
type = Corner;
},
{
name = _corner.serifLeft;
options = 1;
origin = (1,1);
scale = (1.3,-1);
type = Corner;
},
{
name = _corner.serifLeft;
origin = (1,0);
scale = (0.6,1);
type = Corner;
}
);
layerId = m01;
shapes = (
{
closed = 1;
nodes = (
(280,0,l),
(80,500,l),
(53,500,l),
(253,0,l)
);
},
{
closed = 1;
nodes = (
(480,500,l),
(464,500,l),
(264,0,l),
(280,0,l)
);
}
);
width = 533;
}
);
metricRight = "=|";
unicode = 118;
},
{
glyphname = w;
kernLeft = w;
kernRight = w;
lastChange = "2026-04-22 03:25:55 +0000";
layers = (
{
hints = (
{
name = _corner.serifLeft;
options = 1;
origin = (0,2);
scale = (0.6,-1);
type = Corner;
},
{
name = _corner.serifLeft;
origin = (0,1);
scale = (1.3,1);
type = Corner;
},
{
name = _corner.serifLeft;
origin = (3,0);
scale = (0.6,1);
type = Corner;
},
{
name = _corner.serifLeft;
options = 1;
origin = (3,1);
scale = (1.3,-1);
type = Corner;
}
);
layerId = m01;
shapes = (
{
closed = 1;
nodes = (
(262,0,l),
(82,500,l),
(55,500,l),
(235,0,l)
);
},
{
closed = 1;
nodes = (
(402,500,l),
(386,500,l),
(246,0,l),
(262,0,l)
);
},
{
closed = 1;
nodes = (
(582,0,l),
(402,500,l),
(390,500,l),
(386,473,l),
(555,0,l)
);
},
{
closed = 1;
nodes = (
(722,500,l),
(706,500,l),
(566,0,l),
(582,0,l)
);
}
);
width = 781;
}
);
metricLeft = "=v";
metricRight = "=v";
unicode = 119;
},
{
glyphname = x;
kernLeft = x;
kernRight = x;
lastChange = "2026-04-21 06:24:22 +0000";
layers = (
{
hints = (
{
name = _corner.serifLeft;
options = 1;
origin = (0,0);
scale = (0.8,-1);
type = Corner;
},
{
name = _corner.serifLeft;
options = 1;
origin = (0,2);
scale = (0.8,-1);
type = Corner;
},
{
name = _corner.serifLeft;
origin = (0,3);
type = Corner;
},
{
name = _corner.serifLeft;
origin = (0,1);
type = Corner;
},
{
name = _corner.serifLeft;
origin = (2,1);
scale = (0.8,1);
type = Corner;
},
{
name = _corner.serifLeft;
options = 1;
origin = (1,2);
scale = (1,-1);
type = Corner;
},
{
name = _corner.serifLeft;
origin = (1,1);
scale = (0.8,1);
type = Corner;
},
{
name = _corner.serifLeft;
options = 1;
origin = (2,2);
scale = (1,-1);
type = Corner;
}
);
layerId = m01;
shapes = (
{
closed = 1;
nodes = (
(474,0,l),
(99,500,l),
(72,500,l),
(447,0,l)
);
},
{
closed = 1;
nodes = (
(272,256,l),
(449,500,l),
(432,500,l),
(255,256,l)
);
},
{
closed = 1;
nodes = (
(255,266,l),
(57,0,l),
(74,0,l),
(272,266,l)
);
}
);
width = 530;
}
);
metricRight = "=|";
unicode = 120;
},
{
glyphname = y;
kernLeft = y;
kernRight = y;
lastChange = "2026-04-22 03:26:15 +0000";
layers = (
{
hints = (
{
name = _corner.serifLeft;
options = 1;
origin = (0,2);
scale = (0.6,-1);
type = Corner;
},
{
name = _corner.serifLeft;
origin = (0,1);
scale = (1.3,1);
type = Corner;
},
{
name = _corner.serifLeft;
options = 1;
origin = (1,1);
scale = (1.3,-1);
type = Corner;
},
{
name = _corner.serifLeft;
origin = (1,0);
scale = (0.6,1);
type = Corner;
}
);
layerId = m01;
shapes = (
{
closed = 1;
nodes = (
(279,10,l),
(80,500,l),
(53,500,l),
(262,-13,l)
);
},
{
closed = 1;
nodes = (
(480,500,l),
(465,500,l),
(259,-4,l),
(150,-195,l),
(188,-216,l)
);
}
);
width = 533;
}
);
metricLeft = "=v";
metricRight = "=v";
unicode = 121;
},
{
glyphname = z;
kernLeft = z;
kernRight = z;
lastChange = "2026-04-22 03:22:26 +0000";
layers = (
{
hints = (
{
name = _corner.serifLeft;
options = 1;
origin = (1,0);
scale = (1.3,-1);
type = Corner;
},
{
name = _corner.serifLeft;
options = 1;
origin = (2,2);
scale = (1.6,-1);
type = Corner;
}
);
layerId = m01;
shapes = (
{
closed = 1;
nodes = (
(78,12,l),
(410,488,l),
(382,488,l),
(50,12,l)
);
},
{
closed = 1;
nodes = (
(79,488,l),
(410,488,l),
(410,500,l),
(81,500,l)
);
},
{
closed = 1;
nodes = (
(50,0,l),
(393,0,l),
(396,12,l),
(50,12,l)
);
}
);
width = 480;
}
);
unicode = 122;
},
{
glyphname = f.ss01;
kernLeft = f;
kernRight = f;
lastChange = "2026-04-21 10:45:42 +0000";
layers = (
{
layerId = m01;
shapes = (
{
closed = 1;
nodes = (
(366,710,o),
(391,664,o),
(391,607,cs),
(391,562,l),
(401,562,l),
(413,666,l),
(384,691,o),
(358,720,o),
(281,720,cs),
(190,720,o),
(128,681,o),
(128,564,cs),
(128,-190,l),
(143,-190,l),
(153,0,l),
(153,564,ls),
(153,675,o),
(202,710,o),
(279,710,cs)
);
},
{
closed = 1;
nodes = (
(20,484,l),
(317,484,l),
(317,500,l),
(20,500,l)
);
}
);
width = 359;
},
{
associatedMasterId = m01;
hints = (
{
name = _corner.serifLeft;
options = 1;
origin = (2,2);
scale = (1,-1);
type = Corner;
},
{
name = _corner.serifLeft;
origin = (2,3);
type = Corner;
}
);
layerId = "A2836D5C-24F3-4811-944D-2007A5B1E3A4";
name = "21 Apr 26 at 17.38";
shapes = (
{
closed = 1;
nodes = (
(377,506,o),
(421,460,o),
(421,403,cs),
(421,358,l),
(431,358,l),
(443,462,l),
(414,487,o),
(369,516,o),
(296,516,cs),
(211,516,o),
(145,477,o),
(145,360,c),
(153,360,l),
(153,471,o),
(223,506,o),
(294,506,cs)
);
},
{
closed = 1;
nodes = (
(20,130,l),
(407,130,l),
(407,146,l),
(20,146,l)
);
},
{
closed = 1;
nodes = (
(153,-120,l),
(153,500,l),
(128,500,l),
(128,-120,l)
);
}
);
width = 459;
}
);
metricLeft = "=f";
metricRight = "=f";
},
{
glyphname = r.ss01;
kernLeft = n;
kernRight = k;
lastChange = "2026-04-21 04:13:09 +0000";
layers = (
{
hints = (
{
name = _corner.serifLeft;
origin = (0,3);
type = Corner;
},
{
name = _corner.serifLeft;
options = 1;
origin = (0,0);
scale = (1,-1);
type = Corner;
},
{
name = _corner.serifLeft;
options = 1;
origin = (0,2);
scale = (1,-1);
type = Corner;
}
);
layerId = m01;
shapes = (
{
closed = 1;
nodes = (
(139,0,l),
(139,500,l),
(114,500,l),
(114,0,l)
);
},
{
closed = 1;
nodes = (
(164,199,o),
(202,195,o),
(241,195,cs),
(372,195,o),
(503,242,o),
(503,369,cs),
(503,447,o),
(446,516,o),
(338,516,cs),
(224,516,o),
(129,437,o),
(132,251,c),
(139,251,l),
(139,431,o),
(230,506,o),
(338,506,cs),
(434,506,o),
(473,441,o),
(473,369,cs),
(473,247,o),
(359,204,o),
(237,204,cs),
(200,204,o),
(162,208,o),
(126,215,c),
(128,206,l)
);
},
{
closed = 1;
nodes = (
(528,-60,l),
(342,208,l),
(302,203,l),
(514,-60,l)
);
}
);
width = 562;
},
{
associatedMasterId = m01;
hints = (
{
name = _corner.serifLeft;
origin = (0,3);
type = Corner;
},
{
name = _corner.serifLeft;
options = 1;
origin = (0,0);
scale = (1,-1);
type = Corner;
},
{
name = _corner.serifLeft;
options = 1;
origin = (0,2);
scale = (1,-1);
type = Corner;
}
);
layerId = "D1B45180-BADD-4D0D-B367-EE10A8B900A4";
name = "20 Apr 26 at 16.32";
shapes = (
{
closed = 1;
nodes = (
(139,0,l),
(139,500,l),
(114,500,l),
(114,0,l)
);
},
{
closed = 1;
nodes = (
(284,174,o),
(503,204,o),
(503,369,cs),
(503,447,o),
(446,516,o),
(338,516,cs),
(224,516,o),
(129,437,o),
(132,251,c),
(139,251,l),
(139,431,o),
(230,506,o),
(338,506,cs),
(434,506,o),
(473,441,o),
(473,369,cs),
(473,210,o),
(279,185,o),
(126,215,c),
(128,206,l)
);
},
{
closed = 1;
nodes = (
(528,-60,l),
(342,208,l),
(302,203,l),
(514,-60,l)
);
}
);
width = 562;
}
);
metricLeft = "=n";
metricRight = "=k";
},
{
glyphname = t.ss01;
kernLeft = t.ss01;
kernRight = t.ss01;
lastChange = "2026-04-21 10:40:40 +0000";
layers = (
{
layerId = m01;
shapes = (
{
closed = 1;
nodes = (
(360,-16,o),
(403,12,o),
(438,97,c),
(430,101,l),
(395,12,o),
(348,-6,o),
(298,-6,cs),
(231,-6,o),
(193,27,o),
(193,123,cs),
(194,487,l),
(169,497,l),
(169,117,ls),
(169,15,o),
(216,-16,o),
(290,-16,cs)
);
},
{
closed = 1;
nodes = (
(20,486,l),
(447,486,l),
(447,500,l),
(20,500,l)
);
}
);
width = 470;
}
);
},
{
glyphname = f.ss02;
kernLeft = f.ss02;
kernRight = f.ss02;
lastChange = "2026-04-22 03:22:40 +0000";
layers = (
{
layerId = m01;
shapes = (
{
closed = 1;
nodes = (
(386,506,o),
(421,460,o),
(421,403,cs),
(421,358,l),
(431,358,l),
(443,462,l),
(414,487,o),
(378,516,o),
(291,516,cs),
(190,516,o),
(128,477,o),
(128,360,cs),
(128,-190,l),
(143,-190,l),
(153,0,l),
(153,360,ls),
(153,471,o),
(202,506,o),
(289,506,cs)
);
},
{
closed = 1;
nodes = (
(20,130,l),
(407,130,l),
(407,146,l),
(20,146,l)
);
}
);
width = 482;
}
);
},
{
glyphname = y.001;
kernLeft = u;
kernRight = y.ss01;
lastChange = "2026-04-22 03:22:47 +0000";
layers = (
{
hints = (
{
name = _corner.serifLeft;
options = 1;
origin = (0,0);
scale = (1,-1);
type = Corner;
}
);
layerId = m01;
shapes = (
{
closed = 1;
nodes = (
(473,500,l),
(473,-200,l),
(498,-200,l),
(498,500,l)
);
},
{
closed = 1;
nodes = (
(142,448,o),
(69,336,o),
(69,200,cs),
(69,53,o),
(156,-16,o),
(269,-16,cs),
(388,-16,o),
(483,63,o),
(480,249,c),
(473,249,l),
(473,69,o),
(382,-6,o),
(269,-6,cs),
(168,-6,o),
(99,59,o),
(99,200,cs),
(99,330,o),
(158,441,o),
(245,491,c),
(245,500,l),
(30,500,l),
(30,490,l),
(219,480,l),
(233,498,l)
);
}
);
width = 564;
}
);
metricLeft = "=u";
},
{
glyphname = zero;
lastChange = "2026-04-22 10:01:50 +0000";
layers = (
{
layerId = m01;
shapes = (
{
closed = 1;
nodes = (
(460,-16,o),
(565,94,o),
(565,250,cs),
(565,406,o),
(460,516,o),
(311,516,cs),
(161,516,o),
(55,406,o),
(55,250,cs),
(55,94,o),
(161,-16,o),
(311,-16,cs)
);
},
{
closed = 1;
nodes = (
(181,-6,o),
(85,104,o),
(85,250,cs),
(85,396,o),
(181,506,o),
(311,506,cs),
(440,506,o),
(535,396,o),
(535,250,cs),
(535,104,o),
(440,-6,o),
(311,-6,cs)
);
}
);
width = 620;
},
{
associatedMasterId = m01;
layerId = "F96A14FA-B7CA-44C2-8CDC-8FC24D6D3F8C";
name = "22 Apr 26 at 10.32";
shapes = (
{
closed = 1;
nodes = (
(475,-16,o),
(565,126,o),
(565,351,cs),
(565,575,o),
(475,716,o),
(311,716,cs),
(146,716,o),
(55,575,o),
(55,351,cs),
(55,126,o),
(146,-16,o),
(311,-16,cs)
);
},
{
closed = 1;
nodes = (
(168,1,o),
(90,136,o),
(90,351,cs),
(90,565,o),
(168,699,o),
(311,699,cs),
(453,699,o),
(530,565,o),
(530,351,cs),
(530,136,o),
(453,1,o),
(311,1,cs)
);
}
);
width = 620;
},
{
associatedMasterId = m01;
layerId = "249A7DF8-255B-4A8D-9887-785DE871C9D1";
name = "22 Apr 26 at 10.32";
shapes = (
{
closed = 1;
nodes = (
(475,-16,o),
(565,126,o),
(565,280,cs),
(565,435,o),
(475,576,o),
(311,576,cs),
(146,576,o),
(55,435,o),
(55,280,cs),
(55,126,o),
(146,-16,o),
(311,-16,cs)
);
},
{
closed = 1;
nodes = (
(168,1,o),
(90,136,o),
(90,280,cs),
(90,425,o),
(168,559,o),
(311,559,cs),
(453,559,o),
(530,425,o),
(530,280,cs),
(530,136,o),
(453,1,o),
(311,1,cs)
);
}
);
width = 620;
}
);
metricLeft = "=O";
metricRight = "=O";
unicode = 48;
},
{
glyphname = one;
lastChange = "2026-04-22 09:59:14 +0000";
layers = (
{
hints = (
{
name = _corner.serifCapLeft;
options = 1;
origin = (0,0);
scale = (1.4,-1);
type = Corner;
},
{
name = _corner.serifCapLeft;
options = 1;
origin = (0,2);
scale = (-1.4,1);
type = Corner;
},
{
name = _corner.serifCapLeft;
origin = (0,3);
scale = (1.4,1);
type = Corner;
}
);
layerId = m01;
shapes = (
{
closed = 1;
nodes = (
(199,0,l),
(199,516,l),
(174,506,l),
(174,0,l)
);
}
);
width = 363;
},
{
associatedMasterId = m01;
hints = (
{
name = _corner.serifCapLeft;
options = 1;
origin = (0,0);
scale = (1.5,-1);
type = Corner;
},
{
name = _corner.serifCapLeft;
options = 1;
origin = (0,2);
scale = (-1.5,1);
type = Corner;
},
{
name = _corner.serifCapLeft;
origin = (0,3);
scale = (1.5,1);
type = Corner;
}
);
layerId = "08617D1E-5338-4C81-9CAF-63FEF3368100";
name = "22 Apr 26 at 10.31";
shapes = (
{
closed = 1;
nodes = (
(209,0,l),
(209,716,l),
(181,706,l),
(181,0,l)
);
}
);
width = 383;
},
{
associatedMasterId = m01;
hints = (
{
name = _corner.serifCapLeft;
options = 1;
origin = (0,0);
scale = (1.5,-1);
type = Corner;
},
{
name = _corner.serifCapLeft;
options = 1;
origin = (0,2);
scale = (-1.5,1);
type = Corner;
},
{
name = _corner.serifCapLeft;
origin = (0,3);
scale = (1.5,1);
type = Corner;
}
);
layerId = "AE13A68C-29A5-4A5E-8B91-9CE84B2374B6";
name = "22 Apr 26 at 10.31";
shapes = (
{
closed = 1;
nodes = (
(209,0,l),
(209,576,l),
(181,566,l),
(181,0,l)
);
}
);
width = 383;
}
);
unicode = 49;
},
{
glyphname = two;
lastChange = "2026-04-22 10:00:20 +0000";
layers = (
{
hints = (
{
name = _corner.serifCapLeft;
options = 1;
origin = (1,1);
scale = (1.2,-1.1);
type = Corner;
}
);
layerId = m01;
shapes = (
{
closed = 1;
nodes = (
(84,21,l),
(224,145,ls),
(300,212,o),
(394,271,o),
(394,379,cs),
(394,486,o),
(296,516,o),
(221,516,cs),
(167,516,o),
(109,497,o),
(60,458,c),
(77,331,l),
(91,331,l),
(85,396,ls),
(81,471,o),
(162,506,o),
(221,506,cs),
(276,506,o),
(364,479,o),
(364,379,cs),
(364,284,o),
(282,226,o),
(209,159,cs),
(60,21,l)
);
},
{
closed = 1;
nodes = (
(440,0,l),
(442,21,l),
(60,21,l),
(60,0,l)
);
}
);
width = 500;
},
{
associatedMasterId = m01;
hints = (
{
name = _corner.serifCapLeft;
options = 1;
origin = (1,1);
scale = (1.7,-1.1);
type = Corner;
}
);
layerId = "5DFADF9A-7FDC-4AD0-B02F-12E49B78D36F";
name = "22 Apr 26 at 14.02";
shapes = (
{
closed = 1;
nodes = (
(114,26,l),
(349,267,ls),
(460,380,o),
(524,440,o),
(524,538,cs),
(524,655,o),
(426,716,o),
(302,716,cs),
(237,716,o),
(159,696,o),
(110,657,c),
(127,480,l),
(141,480,l),
(135,595,ls),
(131,670,o),
(222,699,o),
(302,699,cs),
(406,699,o),
(488,648,o),
(488,538,cs),
(488,453,o),
(443,395,o),
(334,281,cs),
(90,26,l)
);
},
{
closed = 1;
nodes = (
(540,0,l),
(542,26,l),
(90,26,l),
(90,0,l)
);
}
);
width = 610;
}
);
unicode = 50;
},
{
glyphname = three;
lastChange = "2026-04-22 10:01:18 +0000";
layers = (
{
hints = (
{
name = _corner.serifCapLeft;
options = 1;
origin = (0,3);
scale = (1.3,-1);
type = Corner;
}
);
layerId = m01;
shapes = (
{
closed = 1;
nodes = (
(412,480,l),
(412,500,l),
(63,500,l),
(59,480,l)
);
},
{
closed = 1;
nodes = (
(90,-216,l),
(236,-189,o),
(406,-98,o),
(406,54,cs),
(406,136,o),
(353,214,o),
(214,241,c),
(209,233,l),
(323,203,o),
(376,138,o),
(376,55,cs),
(376,-88,o),
(216,-171,o),
(88,-206,c)
);
},
{
closed = 1;
nodes = (
(156,171,l),
(172,171,l),
(412,480,l),
(396,480,l)
);
}
);
width = 470;
},
{
associatedMasterId = m01;
hints = (
{
name = _corner.serifCapLeft;
options = 1;
origin = (0,3);
scale = (1.3,-1);
type = Corner;
}
);
layerId = "34257A8A-C7FE-4A3A-8860-441B6F26BB6F";
name = "22 Apr 26 at 14.09";
shapes = (
{
closed = 1;
nodes = (
(492,675,l),
(492,700,l),
(113,700,l),
(109,675,l)
);
},
{
closed = 1;
nodes = (
(229,1,o),
(111,32,o),
(114,118,cs),
(118,230,l),
(104,230,l),
(87,53,l),
(160,-1,o),
(246,-16,o),
(300,-16,cs),
(451,-16,o),
(526,92,o),
(526,206,cs),
(526,296,o),
(476,404,o),
(294,411,c),
(289,398,l),
(446,388,o),
(491,298,o),
(491,206,cs),
(491,102,o),
(430,1,o),
(300,1,cs)
);
},
{
closed = 1;
nodes = (
(230,341,l),
(252,341,l),
(492,675,l),
(470,675,l)
);
}
);
width = 590;
}
);
unicode = 51;
},
{
glyphname = four;
lastChange = "2026-04-22 10:26:04 +0000";
layers = (
{
layerId = m01;
shapes = (
{
closed = 1;
nodes = (
(419,-200,l),
(419,500,l),
(394,500,l),
(394,-200,l)
);
},
{
closed = 1;
nodes = (
(34,27,l),
(53,27,l),
(414,500,l),
(395,500,l)
);
},
{
closed = 1;
nodes = (
(34,17,l),
(559,17,l),
(559,27,l),
(34,27,l)
);
}
);
width = 580;
},
{
associatedMasterId = m01;
hints = (
{
name = _corner.serifCapLeft;
options = 1;
origin = (0,0);
scale = (1,-1);
type = Corner;
},
{
name = _corner.serifCapLeft;
origin = (0,3);
scale = (1.5,1);
type = Corner;
}
);
layerId = "1E9239B7-F9C4-493D-9978-16A6D29B840E";
name = "22 Apr 26 at 14.17";
shapes = (
{
closed = 1;
nodes = (
(429,0,l),
(429,700,l),
(401,700,l),
(401,0,l)
);
},
{
closed = 1;
nodes = (
(34,227,l),
(57,227,l),
(425,700,l),
(402,700,l)
);
},
{
closed = 1;
nodes = (
(34,207,l),
(569,207,l),
(569,227,l),
(34,227,l)
);
}
);
width = 600;
}
);
unicode = 52;
},
{
glyphname = five;
lastChange = "2026-04-22 10:25:49 +0000";
layers = (
{
hints = (
{
name = _corner.serifCapLeft;
options = 1;
origin = (0,18);
scale = (0.6,-1);
type = Corner;
}
);
layerId = m01;
shapes = (
{
closed = 1;
nodes = (
(382,237,o),
(396,129,o),
(396,82,cs),
(396,-77,o),
(231,-159,o),
(90,-208,c),
(92,-216,l),
(261,-168,o),
(426,-67,o),
(426,84,cs),
(426,149,o),
(399,247,o),
(257,247,cs),
(190,247,o),
(125,219,o),
(82,180,c),
(114,480,l),
(405,480,l),
(408,500,l),
(100,500,l),
(64,170,l),
(76,163,l),
(116,202,o),
(185,237,o),
(252,237,cs)
);
}
);
width = 490;
},
{
associatedMasterId = m01;
hints = (
{
name = _corner.serifCapLeft;
options = 1;
origin = (2,1);
scale = (0.6,-1);
type = Corner;
}
);
layerId = "2595B338-0068-4AB5-8F4E-67ED70617772";
name = "22 Apr 26 at 14.19";
shapes = (
{
closed = 1;
nodes = (
(387,420,o),
(461,339,o),
(461,213,cs),
(461,93,o),
(391,1,o),
(268,1,cs),
(173,1,o),
(91,49,o),
(94,118,cs),
(98,230,l),
(84,230,l),
(67,53,l),
(122,12,o),
(185,-16,o),
(268,-16,cs),
(412,-16,o),
(496,83,o),
(496,213,cs),
(496,349,o),
(409,437,o),
(276,437,cs),
(194,437,o),
(132,404,o),
(87,356,c),
(96,343,l),
(139,388,o),
(195,420,o),
(271,420,cs)
);
},
{
closed = 1;
nodes = (
(96,343,l),
(120,675,l),
(103,675,l),
(79,343,l)
);
},
{
closed = 1;
nodes = (
(434,675,l),
(438,700,l),
(103,700,l),
(103,675,l)
);
}
);
width = 560;
},
{
associatedMasterId = m01;
hints = (
{
name = _corner.serifCapLeft;
options = 1;
origin = (2,1);
scale = (0.6,-1);
type = Corner;
}
);
layerId = "2D11B4EF-032F-4581-88B5-DD8C9735A6FA";
name = "22 Apr 26 at 17.03";
shapes = (
{
closed = 1;
nodes = (
(357,220,o),
(371,139,o),
(371,88,cs),
(371,-67,o),
(231,-149,o),
(68,-206,c),
(72,-216,l),
(252,-166,o),
(406,-57,o),
(406,88,cs),
(406,149,o),
(379,237,o),
(237,237,cs),
(164,237,o),
(83,215,o),
(40,182,c),
(46,173,l),
(88,198,o),
(165,220,o),
(232,220,cs)
);
},
{
closed = 1;
nodes = (
(46,173,l),
(80,475,l),
(63,475,l),
(29,173,l)
);
},
{
closed = 1;
nodes = (
(344,475,l),
(348,500,l),
(65,500,l),
(63,475,l)
);
}
);
width = 470;
}
);
unicode = 53;
},
{
glyphname = six;
lastChange = "2026-04-22 10:21:03 +0000";
layers = (
{
layerId = m01;
shapes = (
{
closed = 1;
nodes = (
(475,77,o),
(400,-7,o),
(290,-7,cs),
(162,-7,o),
(85,101,o),
(85,257,cs),
(85,454,o),
(210,641,o),
(371,706,c),
(366,716,l),
(188,653,o),
(55,467,o),
(55,257,cs),
(55,88,o),
(144,-16,o),
(290,-16,cs),
(417,-16,o),
(505,67,o),
(505,204,cs),
(505,346,o),
(408,412,o),
(299,412,cs),
(195,412,o),
(96,342,o),
(62,215,c),
(71,213,l),
(105,330,o),
(194,402,o),
(298,402,cs),
(395,402,o),
(475,337,o),
(475,204,cs)
);
}
);
width = 550;
}
);
metricLeft = "=zero";
unicode = 54;
},
{
glyphname = seven;
lastChange = "2026-04-22 10:28:23 +0000";
layers = (
{
hints = (
{
name = _corner.serifCapLeft;
options = 1;
origin = (0,3);
scale = (1.2,-1);
type = Corner;
}
);
layerId = m01;
shapes = (
{
closed = 1;
nodes = (
(422,480,l),
(422,500,l),
(31,500,l),
(29,480,l)
);
},
{
closed = 1;
nodes = (
(199,-200,l),
(226,-200,l),
(422,480,l),
(408,480,l)
);
}
);
width = 460;
},
{
associatedMasterId = m01;
hints = (
{
name = _corner.serifCapLeft;
options = 1;
origin = (0,3);
scale = (1.3,-1);
type = Corner;
}
);
layerId = "55019348-78DF-4ABF-A704-4744CBCE18DF";
name = "22 Apr 26 at 14.25";
shapes = (
{
closed = 1;
nodes = (
(442,675,l),
(442,700,l),
(53,700,l),
(49,675,l)
);
},
{
closed = 1;
nodes = (
(178,0,l),
(216,0,l),
(442,675,l),
(420,675,l)
);
}
);
width = 480;
}
);
unicode = 55;
},
{
glyphname = eight;
lastChange = "2026-04-22 10:08:17 +0000";
layers = (
{
background = {
shapes = (
{
closed = 1;
nodes = (
(448,-16,o),
(525,54,o),
(525,160,cs),
(525,396,o),
(110,339,o),
(110,553,cs),
(110,648,o),
(197,699,o),
(301,699,cs),
(381,699,o),
(472,670,o),
(468,595,cs),
(462,480,l),
(476,480,l),
(493,657,l),
(444,696,o),
(366,716,o),
(301,716,cs),
(177,716,o),
(79,655,o),
(79,546,cs),
(79,320,o),
(494,378,o),
(494,154,cs),
(494,69,o),
(429,1,o),
(301,1,cs),
(222,1,o),
(100,32,o),
(103,118,cs),
(107,250,l),
(93,250,l),
(76,53,l),
(149,-1,o),
(235,-16,o),
(301,-16,cs)
);
}
);
};
layerId = m01;
shapes = (
{
closed = 1;
nodes = (
(176,-6,o),
(87,39,o),
(87,156,cs),
(87,291,o),
(226,347,o),
(277,366,c),
(271,371,l),
(225,358,o),
(57,300,o),
(57,151,cs),
(57,23,o),
(176,-16,o),
(281,-16,cs),
(428,-16,o),
(505,54,o),
(505,160,cs),
(505,396,o),
(109,339,o),
(109,553,cs),
(109,655,o),
(192,706,o),
(291,706,cs),
(366,706,o),
(453,672,o),
(453,555,cs),
(453,439,o),
(345,369,o),
(303,344,c),
(309,339,l),
(351,360,o),
(483,430,o),
(483,560,cs),
(483,688,o),
(366,716,o),
(291,716,cs),
(177,716,o),
(79,655,o),
(79,546,cs),
(79,320,o),
(475,378,o),
(475,154,cs),
(475,62,o),
(414,-6,o),
(281,-6,cs)
);
}
);
width = 562;
},
{
associatedMasterId = m01;
background = {
shapes = (
{
closed = 1;
nodes = (
(448,-16,o),
(525,54,o),
(525,160,cs),
(525,396,o),
(110,339,o),
(110,553,cs),
(110,648,o),
(197,699,o),
(301,699,cs),
(381,699,o),
(472,670,o),
(468,595,cs),
(462,480,l),
(476,480,l),
(493,657,l),
(444,696,o),
(366,716,o),
(301,716,cs),
(177,716,o),
(79,655,o),
(79,546,cs),
(79,320,o),
(494,378,o),
(494,154,cs),
(494,69,o),
(429,1,o),
(301,1,cs),
(222,1,o),
(100,32,o),
(103,118,cs),
(107,250,l),
(93,250,l),
(76,53,l),
(149,-1,o),
(235,-16,o),
(301,-16,cs)
);
}
);
};
layerId = "7A334048-E6DA-4D09-BBB0-71728736370A";
name = "22 Apr 26 at 14.32";
shapes = (
{
closed = 1;
nodes = (
(181,1,o),
(92,46,o),
(92,156,cs),
(92,291,o),
(236,340,o),
(287,366,c),
(271,371,l),
(225,358,o),
(57,300,o),
(57,151,cs),
(57,23,o),
(176,-16,o),
(291,-16,cs),
(448,-16,o),
(525,54,o),
(525,160,cs),
(525,396,o),
(114,339,o),
(114,553,cs),
(114,648,o),
(197,699,o),
(301,699,cs),
(381,699,o),
(468,665,o),
(468,555,cs),
(468,439,o),
(354,380,o),
(313,344,c),
(329,339,l),
(365,362,o),
(503,430,o),
(503,560,cs),
(503,688,o),
(386,716,o),
(301,716,cs),
(177,716,o),
(79,655,o),
(79,546,cs),
(79,320,o),
(490,378,o),
(490,154,cs),
(490,69,o),
(429,1,o),
(291,1,cs)
);
}
);
width = 582;
}
);
unicode = 56;
},
{
glyphname = nine;
lastChange = "2026-04-22 10:09:18 +0000";
layers = (
{
layerId = m01;
shapes = (
{
closed = 1;
nodes = (
(75,430,o),
(160,506,o),
(270,506,cs),
(398,506,o),
(465,406,o),
(465,233,cs),
(465,46,o),
(349,-151,o),
(179,-206,c),
(184,-216,l),
(372,-163,o),
(495,33,o),
(495,233,cs),
(495,412,o),
(416,516,o),
(270,516,cs),
(143,516,o),
(45,433,o),
(45,296,cs),
(45,154,o),
(152,88,o),
(261,88,cs),
(365,88,o),
(454,158,o),
(486,285,c),
(479,287,l),
(445,170,o),
(366,98,o),
(262,98,cs),
(165,98,o),
(75,155,o),
(75,296,cs)
);
}
);
width = 550;
},
{
associatedMasterId = m01;
layerId = "CD2412EC-9729-4531-B603-6C53AA86E9C4";
name = "22 Apr 26 at 17.08";
shapes = (
{
closed = 1;
nodes = (
(80,423,o),
(165,499,o),
(270,499,cs),
(393,499,o),
(460,399,o),
(460,233,cs),
(460,46,o),
(344,-151,o),
(179,-206,c),
(184,-216,l),
(372,-163,o),
(495,33,o),
(495,233,cs),
(495,412,o),
(416,516,o),
(270,516,cs),
(143,516,o),
(45,433,o),
(45,296,cs),
(45,154,o),
(152,88,o),
(261,88,cs),
(365,88,o),
(454,158,o),
(488,275,c),
(479,287,l),
(445,170,o),
(366,106,o),
(262,106,cs),
(170,106,o),
(80,163,o),
(80,296,cs)
);
}
);
width = 550;
}
);
metricRight = "=zero";
unicode = 57;
},
{
glyphname = period;
lastChange = "2026-04-22 06:34:43 +0000";
layers = (
{
layerId = m01;
shapes = (
{
closed = 1;
nodes = (
(128,-16,o),
(144,1,o),
(144,22,cs),
(144,42,o),
(128,58,o),
(108,58,cs),
(87,58,o),
(70,42,o),
(70,22,cs),
(70,1,o),
(87,-16,o),
(108,-16,cs)
);
}
);
width = 214;
}
);
metricRight = "=|";
unicode = 46;
},
{
glyphname = comma;
lastChange = "2026-04-22 08:57:49 +0000";
layers = (
{
background = {
shapes = (
{
closed = 1;
nodes = (
(132,-90,o),
(148,-73,o),
(148,-52,cs),
(148,-32,o),
(132,-16,o),
(112,-16,cs),
(91,-16,o),
(74,-32,o),
(74,-52,cs),
(74,-73,o),
(91,-90,o),
(112,-90,cs)
);
}
);
};
layerId = m01;
shapes = (
{
closed = 1;
nodes = (
(91,-16,o),
(74,2,o),
(74,22,cs),
(74,42,o),
(91,58,o),
(112,58,cs),
(132,58,o),
(148,44,o),
(148,14,cs),
(148,-33,o),
(111,-113,o),
(76,-162,c),
(70,-160,l),
(96,-112,o),
(110,-68,o),
(121,-3,c),
(122,-16,l)
);
}
);
width = 218;
}
);
metricLeft = "=period";
metricRight = "=period";
unicode = 44;
},
{
glyphname = exclam;
lastChange = "2026-04-22 06:48:26 +0000";
layers = (
{
layerId = m01;
shapes = (
{
ref = period;
},
{
closed = 1;
nodes = (
(102,169,l),
(112,169,l),
(122,700,l),
(92,700,l)
);
}
);
width = 214;
}
);
unicode = 33;
},
{
glyphname = question;
kernLeft = question;
kernRight = question;
lastChange = "2026-04-22 08:02:14 +0000";
layers = (
{
layerId = m01;
shapes = (
{
closed = 1;
nodes = (
(232,169,l),
(239,307,l),
(370,390,o),
(444,440,o),
(444,543,cs),
(444,655,o),
(356,716,o),
(249,716,cs),
(187,716,o),
(119,696,o),
(70,657,c),
(87,500,l),
(101,500,l),
(95,595,ls),
(91,670,o),
(182,699,o),
(249,699,cs),
(336,699,o),
(408,648,o),
(408,543,cs),
(408,453,o),
(353,405,o),
(219,321,c),
(222,169,l)
);
},
{
pos = (120,0);
ref = period;
}
);
width = 514;
}
);
unicode = 63;
},
{
glyphname = asterisk;
lastChange = "2026-04-22 09:03:38 +0000";
layers = (
{
layerId = m01;
shapes = (
{
closed = 1;
nodes = (
(187,700,l),
(155,700,l),
(169,546,l),
(34,622,l),
(20,594,l),
(166,539,l),
(57,428,l),
(81,408,l),
(171,536,l),
(170,536,l),
(262,408,l),
(286,428,l),
(177,539,l),
(323,594,l),
(309,622,l),
(174,546,l)
);
}
);
width = 343;
}
);
unicode = 42;
},
{
glyphname = numbersign;
lastChange = "2026-04-22 10:27:52 +0000";
layers = (
{
layerId = m01;
shapes = (
{
closed = 1;
nodes = (
(292,0,l),
(336,500,l),
(324,500,l),
(280,0,l)
);
},
{
closed = 1;
nodes = (
(114,0,l),
(158,500,l),
(146,500,l),
(102,0,l)
);
},
{
closed = 1;
nodes = (
(50,327,l),
(388,327,l),
(388,350,l),
(50,350,l)
);
},
{
closed = 1;
nodes = (
(50,150,l),
(388,150,l),
(388,173,l),
(50,173,l)
);
}
);
width = 438;
}
);
unicode = 35;
},
{
glyphname = slash;
lastChange = "2026-04-22 08:05:15 +0000";
layers = (
{
layerId = m01;
shapes = (
{
closed = 1;
nodes = (
(60,-143,l),
(76,-143,l),
(376,700,l),
(360,700,l)
);
}
);
width = 436;
}
);
unicode = 47;
},
{
glyphname = hyphen;
lastChange = "2026-04-22 08:12:04 +0000";
layers = (
{
layerId = m01;
shapes = (
{
closed = 1;
nodes = (
(60,255,l),
(365,255,l),
(365,278,l),
(60,278,l)
);
}
);
width = 425;
}
);
unicode = 45;
},
{
glyphname = endash;
lastChange = "2026-04-22 08:12:58 +0000";
layers = (
{
layerId = m01;
shapes = (
{
closed = 1;
nodes = (
(0,255,l),
(435,255,l),
(435,278,l),
(0,278,l)
);
}
);
width = 435;
}
);
unicode = 8211;
},
{
glyphname = emdash;
lastChange = "2026-04-22 08:13:45 +0000";
layers = (
{
layerId = m01;
shapes = (
{
closed = 1;
nodes = (
(0,255,l),
(670,255,l),
(670,278,l),
(0,278,l)
);
}
);
width = 670;
}
);
unicode = 8212;
},
{
glyphname = underscore;
lastChange = "2026-04-22 08:15:33 +0000";
layers = (
{
layerId = m01;
shapes = (
{
closed = 1;
nodes = (
(30,-62,l),
(500,-62,l),
(500,-42,l),
(30,-42,l)
);
}
);
width = 530;
}
);
unicode = 95;
},
{
glyphname = parenleft;
lastChange = "2026-04-22 08:42:47 +0000";
layers = (
{
background = {
shapes = (
{
pos = (127,0);
ref = braceleft;
}
);
};
layerId = m01;
shapes = (
{
closed = 1;
nodes = (
(-16,499,o),
(-16,87,o),
(167,-130,c),
(176,-124,l),
(17,98,o),
(17,489,o),
(176,710,c),
(167,716,l)
);
}
);
width = 206;
}
);
unicode = 40;
},
{
glyphname = braceleft;
lastChange = "2026-04-22 08:39:03 +0000";
layers = (
{
background = {
shapes = (
{
pos = (31,0);
ref = bracketleft;
}
);
};
layerId = m01;
shapes = (
{
closed = 1;
nodes = (
(101,288,o),
(131,326,o),
(131,380,cs),
(131,570,ls),
(131,658,o),
(169,701,o),
(230,709,c),
(228,716,l),
(157,708,o),
(96,663,o),
(101,570,cs),
(111,380,ls),
(114,332,o),
(95,298,o),
(40,298,c),
(40,288,l)
);
},
{
closed = 1;
nodes = (
(40,288,l),
(95,288,o),
(114,254,o),
(111,206,cs),
(101,16,ls),
(96,-77,o),
(157,-122,o),
(228,-130,c),
(230,-123,l),
(169,-115,o),
(131,-72,o),
(131,16,cs),
(131,206,ls),
(131,260,o),
(101,298,o),
(40,298,c)
);
}
);
width = 270;
},
{
associatedMasterId = m01;
layerId = "00BAD9B1-586A-44FD-A13A-DDB4A4DEA247";
name = "22 Apr 26 at 15.23";
shapes = (
{
closed = 1;
nodes = (
(80,299,l),
(80,700,l),
(60,700,l),
(60,287,l)
);
},
{
closed = 1;
nodes = (
(60,287,l),
(60,297,l),
(9,297,l),
(9,287,l)
);
},
{
closed = 1;
nodes = (
(217,690,l),
(217,700,l),
(67,700,l),
(67,690,l)
);
}
);
width = 600;
},
{
associatedMasterId = m01;
layerId = "A69D81FC-83F8-439C-8B08-351CDE636F04";
name = "22 Apr 26 at 15.27";
shapes = (
{
closed = 1;
nodes = (
(50,287,o),
(80,305,o),
(80,339,cs),
(80,630,ls),
(80,671,o),
(95,690,o),
(128,690,cs),
(217,690,l),
(217,700,l),
(128,700,ls),
(79,700,o),
(60,671,o),
(60,630,cs),
(60,339,ls),
(60,311,o),
(44,297,o),
(9,297,c),
(9,287,l)
);
}
);
width = 600;
}
);
unicode = 123;
},
{
glyphname = bracketleft;
lastChange = "2026-04-22 08:38:07 +0000";
layers = (
{
layerId = m01;
shapes = (
{
closed = 1;
nodes = (
(40,-114,l),
(60,-114,l),
(60,700,l),
(40,700,l)
);
},
{
closed = 1;
nodes = (
(47,690,l),
(197,690,l),
(197,700,l),
(47,700,l)
);
},
{
closed = 1;
nodes = (
(47,-114,l),
(197,-114,l),
(197,-104,l),
(47,-104,l)
);
}
);
width = 237;
}
);
unicode = 91;
},
{
glyphname = quotesinglbase;
lastChange = "2026-04-22 09:10:41 +0000";
layers = (
{
layerId = m01;
shapes = (
{
closed = 1;
nodes = (
(35,-154,l),
(42,-154,l),
(57,50,l),
(20,50,l)
);
}
);
width = 77;
}
);
metricRight = "=|";
unicode = 8218;
},
{
glyphname = guilsinglleft;
kernLeft = guilsinglleft;
kernRight = guilsinglleft;
lastChange = "2026-04-22 09:09:46 +0000";
layers = (
{
layerId = m01;
shapes = (
{
closed = 1;
nodes = (
(92,275,l),
(244,476,l),
(240,480,l),
(60,275,l)
);
},
{
closed = 1;
nodes = (
(240,70,l),
(244,74,l),
(92,275,l),
(60,275,l)
);
}
);
width = 304;
}
);
metricRight = "=|";
unicode = 8249;
},
{
glyphname = quotesingle;
lastChange = "2026-04-22 08:58:38 +0000";
layers = (
{
layerId = m01;
shapes = (
{
closed = 1;
nodes = (
(35,496,l),
(42,496,l),
(57,700,l),
(20,700,l)
);
}
);
width = 77;
}
);
metricRight = "=|";
unicode = 39;
},
{
glyphname = at;
lastChange = "2026-04-22 10:51:50 +0000";
layers = (
{
layerId = m01;
shapes = (
{
closed = 1;
nodes = (
(589,-16,o),
(632,147,o),
(590,264,c),
(584,260,l),
(622,150,o),
(577,-6,o),
(422,-6,cs),
(319,-6,o),
(277,63,o),
(277,144,cs),
(277,283,o),
(414,333,o),
(557,356,c),
(554,365,l),
(403,342,o),
(247,284,o),
(247,144,cs),
(247,57,o),
(307,-16,o),
(420,-16,cs)
);
},
{
closed = 1;
nodes = (
(714,10,o),
(698,12,o),
(686,45,c),
(522,500,l),
(497,500,l),
(677,0,l),
(676,0,l),
(750,0,ls),
(849,0,o),
(879,149,o),
(879,238,cs),
(879,466,o),
(695,650,o),
(467,650,cs),
(239,650,o),
(55,466,o),
(55,238,cs),
(55,10,o),
(239,-174,o),
(467,-174,cs),
(531,-174,o),
(591,-160,o),
(645,-134,c),
(637,-121,l),
(586,-145,o),
(528,-159,o),
(467,-159,cs),
(247,-159,o),
(70,18,o),
(70,238,cs),
(70,458,o),
(247,635,o),
(467,635,cs),
(687,635,o),
(864,458,o),
(864,238,cs),
(864,154,o),
(844,10,o),
(740,10,cs)
);
},
{
closed = 1;
nodes = (
(522,500,l),
(377,500,l),
(377,490,l),
(522,480,l)
);
}
);
width = 934;
}
);
metricLeft = "=O";
metricRight = "=O";
unicode = 64;
},
{
glyphname = copyright;
lastChange = "2026-04-22 10:53:53 +0000";
layers = (
{
layerId = m01;
shapes = (
{
alignment = -1;
pos = (195,133);
ref = c;
scale = (0.8291,0.8291);
},
{
closed = 1;
nodes = (
(602,-15,o),
(760,143,o),
(760,338,cs),
(760,532,o),
(602,690,o),
(408,690,cs),
(213,690,o),
(55,532,o),
(55,338,cs),
(55,143,o),
(213,-15,o),
(408,-15,cs)
);
},
{
closed = 1;
nodes = (
(221,0,o),
(70,151,o),
(70,338,cs),
(70,524,o),
(221,675,o),
(408,675,cs),
(594,675,o),
(745,524,o),
(745,338,cs),
(745,151,o),
(594,0,o),
(408,0,cs)
);
}
);
width = 815;
}
);
metricLeft = "=O";
metricRight = "=O";
unicode = 169;
},
{
glyphname = degree;
lastChange = "2026-04-22 09:41:19 +0000";
layers = (
{
layerId = m01;
shapes = (
{
closed = 1;
nodes = (
(240,456,o),
(295,511,o),
(295,579,cs),
(295,646,o),
(240,701,o),
(172,701,cs),
(105,701,o),
(50,646,o),
(50,579,cs),
(50,511,o),
(105,456,o),
(172,456,cs)
);
},
{
closed = 1;
nodes = (
(117,477,o),
(71,523,o),
(71,579,cs),
(71,634,o),
(117,680,o),
(172,680,cs),
(228,680,o),
(274,634,o),
(274,579,cs),
(274,523,o),
(228,477,o),
(172,477,cs)
);
}
);
width = 345;
}
);
unicode = 176;
},
{
glyphname = cent;
lastChange = "2026-04-22 09:50:11 +0000";
layers = (
{
layerId = m01;
shapes = (
{
ref = c;
},
{
closed = 1;
nodes = (
(257,-89,l),
(270,-89,l),
(270,589,l),
(257,589,l)
);
}
);
width = 474;
}
);
unicode = 162;
},
{
glyphname = dollar;
lastChange = "2026-04-22 09:53:22 +0000";
layers = (
{
layerId = m01;
shapes = (
{
pos = (-5,-1);
ref = S;
scale = (0.85,0.85);
},
{
closed = 1;
nodes = (
(242,-89,l),
(255,-89,l),
(255,683,l),
(242,683,l)
);
}
);
width = 510;
}
);
unicode = 36;
},
{
glyphname = euro;
lastChange = "2026-04-22 09:54:30 +0000";
layers = (
{
layerId = m01;
shapes = (
{
pos = (40,0);
ref = C;
scale = (0.85,0.85);
},
{
closed = 1;
nodes = (
(6,355,l),
(366,355,l),
(376,366,l),
(6,366,l)
);
},
{
closed = 1;
nodes = (
(6,229,l),
(366,229,l),
(376,240,l),
(6,240,l)
);
}
);
width = 626;
}
);
unicode = 8364;
},
{
glyphname = sterling;
lastChange = "2026-04-22 09:58:42 +0000";
layers = (
{
hints = (
{
name = _corner.serifLeft;
options = 1;
origin = (1,2);
scale = (1,-1);
type = Corner;
}
);
layerId = m01;
shapes = (
{
closed = 1;
nodes = (
(65,18,l),
(260,173,o),
(95,278,o),
(95,436,cs),
(95,551,o),
(169,594,o),
(258,594,cs),
(326,594,o),
(403,570,o),
(400,506,cs),
(394,408,l),
(406,408,l),
(421,558,l),
(379,592,o),
(313,609,o),
(258,609,cs),
(152,609,o),
(69,557,o),
(69,430,cs),
(69,262,o),
(234,177,o),
(52,18,c)
);
},
{
closed = 1;
nodes = (
(50,0,l),
(414,0,l),
(417,18,l),
(50,18,l)
);
},
{
closed = 1;
nodes = (
(6,275,l),
(366,275,l),
(376,286,l),
(6,286,l)
);
}
);
width = 480;
}
);
unicode = 163;
},
{
glyphname = yen;
lastChange = "2026-04-22 09:54:45 +0000";
layers = (
{
layerId = m01;
shapes = (
{
ref = Y;
scale = (0.85,0.85);
},
{
closed = 1;
nodes = (
(106,233,l),
(477,233,l),
(477,244,l),
(106,244,l)
);
},
{
closed = 1;
nodes = (
(106,112,l),
(477,112,l),
(477,123,l),
(106,123,l)
);
}
);
width = 583;
}
);
unicode = 165;
},
{
glyphname = dotaccentcomb;
lastChange = "2026-04-21 03:17:03 +0000";
layers = (
{
anchors = (
{
name = _top;
pos = (106,500);
},
{
name = top;
pos = (106,664);
}
);
layerId = m01;
shapes = (
{
closed = 1;
nodes = (
(129,582,o),
(147,601,o),
(147,624,cs),
(147,646,o),
(129,664,o),
(107,664,cs),
(84,664,o),
(65,646,o),
(65,624,cs),
(65,601,o),
(84,582,o),
(107,582,cs)
);
}
);
width = 253;
}
);
unicode = 775;
},
{
export = 0;
glyphname = _corner.serifCapLeft;
lastChange = "2026-04-22 03:51:57 +0000";
layers = (
{
anchors = (
{
name = left;
pos = (114,48);
},
{
name = origin;
pos = (115,0);
},
{
name = right;
pos = (125,0);
}
);
layerId = m01;
shapes = (
{
closed = 0;
nodes = (
(114,48,l),
(114,13,o),
(81,13,o),
(15,13,c),
(15,0,l),
(125,0,l)
);
}
);
width = 134;
}
);
},
